<?xml version="1.0" standalone="no"?><!DOCTYPE svg PUBLIC "-//W3C//DTD SVG 1.1//EN" "http://www.w3.org/Graphics/SVG/1.1/DTD/svg11.dtd"><svg t="1597194943542" class="icon" viewBox="0 0 1024 1024" version="1.1" xmlns="http://www.w3.org/2000/svg" p-id="24338" xmlns:xlink="http://www.w3.org/1999/xlink" width="200" height="200"><defs><style type="text/css"></style></defs><path d="M519.168 268.288c-137.216-220.16-462.848-137.216-450.56 102.4 7.168 123.904 94.208 172.032 424.96 501.76 9.216 9.216 24.576 3.072 24.576-10.24 0-14.336-6.144-27.648-16.384-37.888-36.864-37.888-133.12-132.096-175.104-172.032-175.104-168.96-212.992-207.872-217.088-284.672-3.072-50.176 12.288-95.232 45.056-129.024 34.816-36.864 86.016-57.344 141.312-57.344 76.8 0 145.408 39.936 188.416 108.544l34.816 55.296 34.816-55.296c43.008-68.608 111.616-108.544 188.416-108.544 55.296 0 106.496 21.504 141.312 57.344 31.744 33.792 47.104 77.824 45.056 129.024-1.024 26.624-3.072 36.864-12.288 57.344-5.12 10.24-1.024 21.504 9.216 26.624s22.528 1.024 27.648-9.216c10.24-22.528 15.36-46.08 16.384-71.68 12.288-239.616-313.344-322.56-450.56-102.4z" p-id="24339"></path><path d="M692.224 540.672c-59.392-95.232-199.68-59.392-194.56 44.032 3.072 55.296 43.008 75.776 194.56 228.352 151.552-152.576 191.488-173.056 194.56-228.352 6.144-103.424-135.168-139.264-194.56-44.032z m67.584 149.504c-18.432 18.432-40.96 38.912-66.56 64.512-25.6-25.6-48.128-47.104-66.56-64.512-73.728-70.656-86.016-83.968-87.04-107.52-1.024-15.36 3.072-28.672 13.312-38.912 10.24-11.264 26.624-17.408 44.032-17.408 24.576 0 47.104 13.312 61.44 35.84l34.816 55.296 34.816-55.296c14.336-22.528 36.864-35.84 61.44-35.84 17.408 0 33.792 6.144 44.032 17.408 9.216 10.24 13.312 22.528 13.312 38.912-2.048 23.552-13.312 36.864-87.04 107.52z" p-id="24340"></path></svg>