<?xml version="1.0" standalone="no"?><!DOCTYPE svg PUBLIC "-//W3C//DTD SVG 1.1//EN" "http://www.w3.org/Graphics/SVG/1.1/DTD/svg11.dtd"><svg t="1597044735270" class="icon" viewBox="0 0 1177 1024" version="1.1" xmlns="http://www.w3.org/2000/svg" p-id="21301" xmlns:xlink="http://www.w3.org/1999/xlink" width="229.8828125" height="200"><defs><style type="text/css"></style></defs><path d="M975.90251 679.9c-104.2 102.6-512.3 57.8-630.5 34.3C262.50251 697.7 158.30251 385.3 158.30251 385.3l953.3-19.2s-59.8 239.1-135.7 313.8z" fill="#FFF9BF" p-id="21302"></path><path d="M681.90251 754.5c-5.3 0-10.6 0-16-0.1-131.2-1.4-264.5-18.9-322.1-30.4-21.6-4.3-44.6-24.7-70.1-62.3-19.3-28.4-39.9-66.7-61.3-113.8-36.2-79.7-62.6-158.5-62.8-159.3l-4.4-13.1 978.5-19.7-3.2 12.9c-2.5 9.9-61.4 242.8-138.4 318.7-25.5 25.1-69.4 43.4-130.6 54.4-46.7 8.4-103.8 12.7-169.6 12.7zM171.60251 395c9 25.5 30.5 84.7 57.6 144.3 45.6 100.4 87.5 159 118 165.1 57 11.3 189 28.7 318.9 30 156 1.6 261-19.8 303.6-61.8l6.3 7.4-6.3-7.4c63.1-62.1 116-245.9 129.6-296.3L171.60251 395z" fill="" p-id="21303"></path><path d="M801.20251 728.2c-113.7 25.3-421.5 19.9-541.3 0.1C179.50251 715 79.40251 426.5 79.40251 426.5h902.8s-101.2 284-181 301.7z" fill="#FFF799" p-id="21304"></path><path d="M551.90251 755.2c-6.3 0-12.7 0-19.1-0.1-110-0.7-215.1-7.2-274.3-17-21.1-3.5-43.3-22-68.1-56.5-18.6-26-38.5-61.2-59.1-104.6-35-73.5-60.3-146.2-60.6-146.9l-4.7-13.5h929.6l-4.8 13.6c-0.3 0.7-25.9 72.4-61 145.2C881.70251 675.3 839.10251 730 803.10251 738l-1.9-9.8 1.9 9.8c-49.6 11-140.4 17.2-251.2 17.2z m-459-318.7c8.9 24.3 29.3 77.7 54.9 131.5 43.8 92.1 84.1 145.5 113.5 150.4 124.6 20.6 429.4 24.2 538 0 29.3-6.5 69.8-60.6 113.9-152.2 25.6-53.2 46.1-105.7 55.2-129.7H92.90251z" fill="" p-id="21305"></path><path d="M1093.40251 457.1c-223.5 12.2-774.7 3.6-1074 0-53-0.6 117.5-133.5 170.5-135.3 228-7.6 723.9-24.9 968.6 0 35.4 3.6-29.6 133.4-65.1 135.3z" fill="#FFFFFF" p-id="21306"></path><path d="M722.10251 473.5c-201.5 0-430.6-2.9-608-5.1-33.6-0.4-65.4-0.8-94.8-1.2-18.2-0.2-19.2-13.7-19.3-16.4-0.1-6.6 2.7-16.9 24.6-38.7 13.4-13.3 32-28.8 52.4-43.6 36.9-26.8 85.8-55.8 112.5-56.7l12.3-0.4c232.6-7.8 716.5-24.1 957.5 0.5 4.5 0.5 19.1 3.7 18.6 26.6-0.8 39-49.1 126.7-84.1 128.6-86.2 4.7-221.2 6.4-371.7 6.4z m-701.9-26.4c29.2 0.4 60.7 0.8 94.1 1.2 309.5 3.9 777.3 9.8 978.6-1.2 5.5-0.3 16.5-7.6 30.8-27.3 12.2-16.8 23.5-38 30.1-56.8 7.6-21.5 5.6-30.1 4.7-31 0 0-0.2-0.1-0.9-0.2-239.8-24.4-723-8.2-955.2-0.4l-12.3 0.4c-18.1 0.6-58.7 21.5-100.9 51.9-19.3 14-37.2 28.6-50.2 41.2-11.5 11.4-16.6 18.4-18.8 22.2z" fill="" p-id="21307"></path><path d="M1093.50251 447.9c-118.7 16.6-314.3 9.3-511.7 7.7-227.4-1.9-456 0.1-555.6-4.8-40.9-2 112.8-118.6 160.2-120 220.8-6.8 765.6-28.8 966.9-1.6 29.6 4.1-29 114.4-59.8 118.7z" fill="#EA5A4F" p-id="21308"></path><path d="M167.60251 391.5a78.9 45.8 0 1 0 157.8 0 78.9 45.8 0 1 0-157.8 0Z" fill="#FFFCDB" p-id="21309"></path><path d="M307.30251 391.5a64.5 42.5 0 1 0 129 0 64.5 42.5 0 1 0-129 0Z" fill="#FFFCDB" p-id="21310"></path><path d="M414.80251 418.4l-217.5-19.5c-6.6-0.6-11.5-6.8-11-13.9l0.5-6.3c0.6-7.1 6.4-12.3 13-11.8l217.5 19.5c6.6 0.6 11.5 6.8 11 13.9l-0.5 6.3c-0.5 7.1-6.4 12.4-13 11.8z" fill="#00B106" p-id="21311"></path><path d="M844.10251 673.7c-24 31.6-61.3 56.4-166.5 56.4s-192.4 11-192.4-29.6c0-26 85.3-101.2 190.5-101.2s194.2 40.3 168.4 74.4z" fill="#FFDF1D" p-id="21312"></path><path d="M795.70251 350.5c8.3-0.6 17.4-1.9 25.9-3.3 2.7-0.2 5.4-0.4 8.1-0.4 9.5 1 22.5-1.9 24.9 11.6 4 17-6.3 29.9-18.1 33.6-2.4 0.8-4.8 1.1-7.3 1.1-2.4 0.5-4.8 1-7.4 1.5 2.3 1.4 4.4 2.8 6.4 4.1 2.3 1.6 4.6 3.1 7 4.7 11.5 7.7 23.3 14.4 35.1 24.6 5.1 5.2-4.1 10-6.7 8.2-10.8-6-19.7-14.2-29.5-20.5-2-1.2-4-2.4-6.1-3.4-18.5-11.6-39.3-13.9-58.7-19.6 18.5-12.8 41.8-3.6 62.6-8.5 2.7-1 5.4-2.6 8-4.2 5.3-4.9 5.5-15 1.7-21.8-3.8-3.5-7.7-7-13.1-5.8-3.1-0.3-6.4-0.2-9.8 0.4-17.4 5.7-39.6 4.9-50.4 28.1-10.8 19.8 16.3 34.2 21.2 51.2 1.2 3.4-5.3 4.9-7.9 3.1-12.8-12.2-24.2-29.4-21.3-49.5 1.6-18.5 16.1-28.1 28.8-35.3l6.6 0.1z" fill="" p-id="21313"></path><path d="M865.10251 439.4c-1 0-2-0.2-2.9-0.8-6.3-3.5-12-7.8-17.4-11.9-4.1-3.1-8-6-12.1-8.6-2.1-1.3-4-2.4-5.9-3.3l-0.2-0.1c-13.1-8.2-27.7-11.7-41.8-15.1-5-1.2-10.2-2.5-15.3-3.9 1.8 4.9 5.7 10.1 10.7 16.3 4.9 6 9.9 12.2 11.9 19 0.7 2.1 0.1 4.3-1.5 5.8-2.6 2.3-7.7 2.7-10.5 0.8l-0.3-0.3c-11.9-11.4-25.5-29.6-22.2-52.2 1.9-21.3 20.3-31.9 30.2-37.6l0.7-0.4 7.2 0.4c8.3-0.6 17.6-2 25.5-3.3h0.2c3-0.3 5.8-0.4 8.4-0.4h0.3c1.7 0.2 3.6 0.2 5.6 0.3 8.2 0.2 19.4 0.5 21.8 13.7 4.4 18.7-7 33.1-20.1 37.1-2.5 0.8-5 1.2-7.6 1.2 2.5 1.7 4.7 3.2 7 4.7 2.9 1.9 5.8 3.8 8.7 5.6 8.7 5.6 17.7 11.4 26.7 19.2l0.2 0.2c2.8 2.9 3.2 6.5 1 9.5-1.9 2.3-5.4 4.1-8.3 4.1z m-0.1-6c0.8 0.1 3.3-0.8 4-2.1 0.1-0.1 0.2-0.4-0.5-1.2-8.6-7.5-17.4-13.1-26-18.6-2.9-1.8-5.8-3.7-8.7-5.7-2.3-1.5-4.6-3-7-4.7-1.1-0.7-2.4-1.5-3.7-2.4l-9-5.8 9.9-2c1.6-0.3 3.2-0.6 4.7-0.9l0.3-0.1h0.3c2.2 0 4.3-0.3 6.5-1 10.5-3.3 19.8-14.9 16.2-30v-0.2c-1.4-8-7-8.7-16.1-8.9 2.9 1.3 5.3 3.5 7.6 5.6l0.4 0.3 0.2 0.4c4.1 7.5 4.5 19.5-2.3 25.6l-0.4 0.3c-2.7 1.6-5.5 3.3-8.5 4.5l-0.3 0.1c-8.4 2-17.2 1.7-25.7 1.5-10.5-0.3-20.5-0.6-29.6 3.2 3 0.8 5.9 1.5 8.9 2.2 14.5 3.5 29.5 7.1 43.3 15.7 2 1 4 2.1 6.2 3.5 4.3 2.7 8.5 5.9 12.5 8.9 5.2 4.3 10.7 8.5 16.8 11.8z m-81.8-0.9c0.8 0.4 2.6 0.2 3.4-0.2-1.7-5.4-6.1-10.8-10.6-16.4-5.4-6.7-11.3-13.9-12.8-22.1l-0.6-0.2c0.8 16.4 11.2 29.9 20.6 38.9z m6.5-79.3c-12.2 7.1-25.2 16.1-26.6 32.6v0.2c-0.4 2.6-0.5 5.1-0.4 7.6l0.5-0.3c-0.7-4.4 0-9 2.6-14 9.1-19.3 25.6-23.1 40.2-26.5 1-0.2 2-0.5 2.9-0.7-4.4 0.6-8.9 1.1-13.1 1.4h-0.1l-6-0.3z m29.5 2.3c-3.9 1.2-8 2.2-12 3.1-14.1 3.2-28.6 6.6-36.5 23.4l-0.1 0.2c-1.4 2.5-2.1 5-2.1 7.3 11.8-7.9 25.3-7.5 38.4-7.1 8.1 0.2 16.5 0.5 24.2-1.3 2.4-0.9 4.7-2.3 7.2-3.8 3.6-3.6 4.2-11.5 1.1-17.4-3.4-3.1-6.4-5.7-10.4-4.8l-0.4 0.1h-0.4c-2.8-0.3-5.9-0.2-9 0.3z" fill="" p-id="21314"></path><path d="M865.20251 438.5c-0.8 0-1.6-0.2-2.2-0.6-6.2-3.5-11.9-7.7-17.3-11.8-4.1-3.1-8.1-6.1-12.2-8.7-2.1-1.3-4.1-2.4-6-3.4l-0.1-0.1c-13.2-8.3-28-11.9-42.2-15.3-5.3-1.3-10.9-2.6-16.2-4.2l-1.2-0.3c1.6 6.2 6.4 12.2 11.4 18.3 4.8 5.9 9.8 12 11.7 18.6 0.5 1.5 0.3 3.2-0.7 4.4-2 2.6-7 2.9-9.3 1.3l-0.2-0.2c-11.8-11.2-25.1-29.3-21.9-51.5 1.7-19.3 16.2-29.1 29.7-36.9l0.3-0.2 6.9 0.3c8.4-0.6 17.7-2 25.7-3.3 3.1-0.3 5.8-0.4 8.3-0.4h0.1c1.8 0.2 3.7 0.2 5.7 0.3 8.6 0.2 18.4 0.4 20.6 12.8 1.6 6.9 1.1 13.8-1.5 19.9-3.3 7.7-10 13.8-17.7 16.2-2.5 0.8-5 1.2-7.5 1.2-0.8 0.2-1.6 0.3-2.4 0.5 0.7 0.4 1.3 0.8 2 1.3 2.5 1.7 4.7 3.2 7 4.7 2.9 1.9 5.8 3.8 8.7 5.6 8.7 5.6 17.6 11.3 26.5 19.1l0.1 0.1c3.2 3.2 2 6.5 1.5 7.5-1.4 2.8-4.9 4.8-7.6 4.8z m-36.6-28.2c2 1 4 2.1 6.2 3.5 4.3 2.7 8.4 5.8 12.4 8.8 5.4 4 11 8.2 17 11.6l0.1 0.1c0.9 0.6 4.8-0.6 5.8-2.7 0.1-0.3 0.4-0.9-0.7-2-8.7-7.6-17.6-13.3-26.1-18.8-2.9-1.8-5.8-3.7-8.7-5.7-2.3-1.5-4.5-3-7-4.7-1.2-0.8-2.5-1.6-3.8-2.4l-7-4.5 7.5-1.5c1.6-0.3 3.2-0.6 4.8-1h0.2c2.3 0 4.6-0.3 6.9-1.1 7-2.2 12.9-7.5 15.8-14.3 2.2-5.2 2.6-10.8 1.2-16.7v-0.2c-1.5-8.7-8-9.5-17.6-9.8-1.9 0-4-0.1-5.8-0.3-2.5 0-5.1 0.1-8 0.4-8 1.3-17.4 2.8-25.9 3.3h-0.1l-6.3-0.3c-12.6 7.3-26 16.5-27.5 33.5v0.2c-3 20.1 9.5 36.8 20.6 47.4 1.6 1 4.9 0.3 5.7-0.6-1.7-5.8-6.4-11.6-10.9-17.2-8.3-10.2-17.7-21.8-10.1-35.9 8.8-18.8 24.4-22.4 39.4-25.9 4.2-1 8.1-1.9 11.9-3.1h0.2c3.5-0.6 6.8-0.7 10-0.5 5.9-1.3 10.1 2.5 14.1 6.1l0.2 0.2 0.2 0.3c2.3 4.2 3.3 9.6 2.7 14.5-0.5 4.2-2.2 7.8-4.8 10.1l-0.2 0.2c-2.6 1.6-5.4 3.3-8.2 4.3h-0.2c-8.3 1.9-17 1.7-25.4 1.5-11.6-0.3-22.7-0.6-32.6 4.4 3.8 1 7.7 2 11.5 2.9 14 3.8 28.9 7.4 42.5 15.9z m-9.7-55.7c-3.9 1.2-8 2.2-12 3.1-14.4 3.3-29.3 6.7-37.3 24.1l-0.1 0.1c-1.8 3.4-2.4 6.6-2.1 9.7l1.2-0.9c11.6-8.1 25.1-7.7 38.2-7.3 8.2 0.2 16.7 0.5 24.7-1.4 2.6-1 5-2.5 7.6-4 2.3-2.2 3.1-5.2 3.4-7.4 0.5-3.7-0.3-7.9-2-11.2-3.6-3.3-7.1-6.3-11.8-5.2h-0.4c-2.9-0.3-6.1-0.2-9.4 0.4z" fill="#FFFFFF" p-id="21315"></path><path d="M865.20251 441.5c-1.3 0-2.5-0.3-3.5-0.9-6.4-3.6-12.1-7.8-17.6-12-4.1-3.1-8-6-12-8.6-2-1.3-3.9-2.3-5.7-3.2l-0.4-0.2c-12.9-8.1-27.4-11.6-41.4-15-3.9-0.9-7.9-1.9-11.9-3 2.1 3.9 5.3 7.8 8.6 11.9 5 6.1 10.1 12.5 12.2 19.7 0.8 2.5 0.4 5.3-1.2 7.3-3 3.9-9.6 4.2-13 1.9l-0.5-0.4c-12.3-11.7-26.2-30.6-22.8-54.1 1.9-20.7 17.1-31.1 31.1-39.1l1-0.6 7.5 0.4c8.3-0.6 17.4-2 25.3-3.3h0.2c3.1-0.3 5.9-0.4 8.6-0.4h0.4c1.7 0.2 3.5 0.2 5.5 0.3 8.7 0.2 20.6 0.5 23.2 15.2 1.8 7.6 1.2 15.1-1.7 21.8-3.7 8.5-11 15.2-19.5 17.8-0.8 0.3-1.6 0.5-2.5 0.7 0.7 0.5 1.5 1 2.2 1.4 2.9 1.9 5.8 3.8 8.6 5.6 8.8 5.7 17.9 11.5 26.9 19.3l0.2 0.2c3.7 3.8 3.5 8.2 2.1 11.1-1.6 3.4-5.9 6.1-9.9 6.2z m-35.3-33.9c2 1 4.1 2.2 6.3 3.6 4.4 2.8 8.5 5.9 12.6 8.9 5.3 4 10.7 8 16.5 11.3 0.4-0.1 0.9-0.2 1.3-0.5-8.2-7-16.6-12.4-24.7-17.6-2.9-1.9-5.9-3.8-8.8-5.7-2.2-1.4-4.5-3-7-4.7-0.9-0.6-2-1.3-3-1.9l-14.1-9.1 7-1.4c-3.1 0-6.2-0.1-9.2-0.2-7.7-0.2-15.1-0.4-22 0.9 0.5 0.1 1 0.3 1.6 0.4 14.5 3.7 29.5 7.3 43.5 16z m-46 23.1h0.4c-2-4.4-5.7-8.9-9.3-13.3-2.6-3.2-5.4-6.7-7.8-10.4 3.7 9.5 10.4 17.6 16.7 23.7z m2.3-0.3z m33.3-72.9c-3.9 1.2-8 2.2-12 3.1-14.4 3.3-28 6.4-35.5 22.5l-0.1 0.2c-0.5 0.9-0.9 1.7-1.1 2.6 11.4-6.2 24-5.9 36.2-5.5 8 0.2 16.3 0.5 23.8-1.3 2.2-0.9 4.5-2.2 6.7-3.6 1.5-1.6 2.1-3.8 2.3-5.3 0.4-2.9-0.2-6.2-1.4-8.9-3.5-3.1-5.9-4.9-9-4.2l-0.6 0.1-0.6-0.1c-2.8-0.2-5.7-0.1-8.7 0.4z m23.2-4.9c0.5 0.5 1 0.9 1.5 1.4l0.6 0.5 0.4 0.7c2.6 4.8 3.8 10.9 3.1 16.5-0.5 3.9-1.8 7.3-3.9 10 2.1-2.1 3.8-4.5 5-7.2 1.9-4.5 2.3-9.5 1-14.7l-0.1-0.3c-0.7-4.4-2.8-6.2-7.6-6.9z" fill="" p-id="21316"></path><path d="M892.60251 422c1.2 5 7.6 8.6 3.6 15.2-2.6 1.6-6.6 3.1-7.8 1.4-10.1-17.2-18.8-39.3-14.6-61.1 0.1-3.4 3.7-4.9 7.1-4.8 0.8 0 3.4 0.1 4.7 1.8 2.4 13.5-3.1 26.8 3.3 38.2 1.1 2.9 2.4 6 3.7 9.3z m6-66.3c-1-2.7-2.3-4.4-2.2-7.8 2.8-10 12-13.1 18.4-7.8 9 5.4-4.1 11.6-8.5 14.3-3.4 1-6 1.4-7.7 1.3z" fill="" p-id="21317"></path><path d="M890.10251 442.3c-1.5 0-3-0.5-4-1.9l-0.2-0.3c-13.6-23-18.6-44.3-15-63.1 0.1-1.8 0.8-3.4 2-4.7 1.8-1.8 4.7-2.9 7.9-2.8 3.1 0.1 5.4 1.1 6.8 3l0.4 0.6 0.1 0.7c1 5.8 0.7 11.4 0.4 16.8-0.4 7.7-0.8 14.4 2.5 20.4l0.2 0.3 0.7 1.7c1 2.4 2 4.9 3.1 7.6l0.1 0.4c0.3 1.1 1.1 2.4 1.9 3.7 2 3.1 5 7.8 1.3 13.9l-0.4 0.6-0.6 0.4c-1.4 1.1-4.4 2.7-7.2 2.7z m-9.6-66.6c-1.5 0-2.9 0.4-3.6 1.1-0.3 0.3-0.3 0.5-0.3 0.7l-0.1 0.6c-3.4 17.1 1.3 36.7 13.8 58.2 0.7 0 2.1-0.4 3.9-1.4 1.1-2.1 0.4-3.5-1.6-6.5-1-1.6-2.2-3.3-2.7-5.4-1-2.5-2-5-3-7.3l-0.6-1.5c-4.1-7.6-3.7-15.8-3.2-23.7 0.3-4.7 0.5-9.6-0.1-14.3-0.4-0.2-1-0.4-2.2-0.4-0.1-0.1-0.2-0.1-0.3-0.1z m18.6-16.9h-0.6l-1.8-0.1-0.7-1.8c-0.2-0.6-0.5-1.2-0.7-1.8-0.8-1.9-1.7-4-1.7-7.2v-0.4l0.1-0.4c1.6-5.8 5.3-10.1 10-11.8 4.3-1.5 8.8-0.7 12.6 2.3 2.9 1.8 4.4 4 4.4 6.6 0 5.4-6.6 9.1-11.4 11.9-0.6 0.3-1.1 0.7-1.6 0.9l-0.3 0.2-0.4 0.1c-2.3 0.7-5.5 1.5-7.9 1.5z m0.1-10.4c0 1.6 0.5 2.6 1.1 4.1v0.1c1.1-0.1 2.7-0.4 4.9-1 0.4-0.2 0.9-0.5 1.4-0.8 6.9-4 8.4-5.8 8.4-6.6 0 0-0.2-0.6-1.7-1.4l-0.3-0.2c-2.3-1.9-5.1-2.4-7.6-1.5-2.8 1-5 3.6-6.2 7.3z" fill="" p-id="21318"></path><path d="M890.30251 441.4c-1.2 0-2.3-0.4-3-1.4l-0.1-0.2c-13.5-22.9-18.5-44-14.9-62.6 0.2-4.7 4.6-6.7 8.6-6.5 1 0 4.1 0.1 5.8 2.5l0.3 0.4 0.1 0.6c1 5.7 0.7 11.3 0.4 16.7-0.4 7.5-0.8 14.6 2.6 20.8l0.1 0.2 0.7 1.6c1 2.4 2.1 5 3.1 7.7l0.1 0.3c0.3 1.3 1.1 2.6 2 4 1.9 2.9 4.8 7.4 1.3 13.1l-0.2 0.4-0.3 0.2c-1.5 0.7-4.3 2.1-6.6 2.2z m-0.9-4.2c0.5 0.4 2.7 0.1 5.7-1.7 1.5-2.7 0.6-4.4-1.4-7.5-1-1.6-2.1-3.2-2.6-5.2-1-2.6-2-5-3-7.4l-0.6-1.5c-4.1-7.4-3.6-15.5-3.1-23.4 0.3-4.9 0.6-9.9-0.2-14.8-0.5-0.4-1.5-0.9-3.3-0.9-3-0.1-5.5 1.2-5.5 2.8v0.5c-3.6 17.3 1.2 37.2 14 59.1z m9.8-79.4h-1.5l-0.4-1.1c-0.2-0.6-0.5-1.2-0.7-1.8-0.8-1.9-1.7-3.8-1.6-6.9v-0.3l0.1-0.3c1.4-5.1 4.3-8.9 8.3-10.6 4.1-1.8 8.6-1.2 12.3 1.7 2.6 1.6 3.9 3.5 3.9 5.9 0 4.5-5.1 7.8-10.8 11.1-0.6 0.4-1.2 0.7-1.6 0.9l-0.3 0.1c-3.3 0.8-5.9 1.3-7.7 1.3z m-1.2-9.4c0 1.7 0.5 2.9 1.2 4.5 0.1 0.3 0.3 0.6 0.4 0.9 1.6-0.1 3.7-0.5 6.3-1.2 0.4-0.3 1-0.6 1.5-0.9 2.2-1.3 9-5.2 9-7.4 0-0.3-0.5-1.2-2.2-2.2l-0.2-0.1c-2.9-2.4-6.5-2.9-9.7-1.4-3 1.2-5.2 4-6.3 7.8z" fill="#FFFFFF" p-id="21319"></path><path d="M890.20251 444.4c-2.7 0-4.3-1.4-5.2-2.5l-0.3-0.4c-13.8-23.5-19-45.2-15.3-64.6 0.5-6.3 6.1-9.3 11.5-9.1 3.5 0.1 6.2 1.3 7.8 3.6l0.7 1 0.2 1.3c1.1 6.1 0.7 11.9 0.4 17.4-0.4 7.3-0.8 13.6 2.2 19l0.3 0.6 0.7 1.6c1 2.3 2 4.9 3.1 7.7l0.2 0.7c0.2 0.7 0.9 1.9 1.6 3 1.9 3 5.9 9.1 1.3 16.5l-0.6 1-0.9 0.6c-1.8 1.1-4.8 2.5-7.7 2.6 0.1 0 0 0 0 0z m-12.2-66.1l-0.1 0.4c-3.2 16.2 1.2 34.9 13 55.5 0.5-0.1 1.2-0.4 2.1-0.9 0.1-0.6-0.2-1.3-1.6-3.6-1.1-1.7-2.3-3.6-3-5.9-1-2.5-1.9-4.8-2.9-7.1l-0.6-1.5c-4.4-8.1-3.9-17-3.4-24.9 0.2-4.1 0.5-8.4 0.1-12.5-0.2 0-0.5-0.1-0.9-0.1-1.3 0-2.3 0.3-2.7 0.6z m21.1-17.5h-0.6l-2.7-0.1-1.1-2.9c-0.2-0.6-0.4-1.1-0.7-1.6-0.9-2-2-4.5-1.9-8.3v-0.7l0.2-0.7c1.7-5.9 5.2-10.4 9.9-12.5 4.9-2.2 10.5-1.5 14.9 2 4.3 2.7 5.2 6 5.2 8.4 0 6.2-5.8 10-12.3 13.8-0.6 0.3-1.1 0.6-1.6 0.9l-1 0.4c-3.3 0.9-6.1 1.4-8.2 1.4 0-0.1-0.1-0.1-0.1-0.1z m1.7-12c0.1 0.6 0.2 1.1 0.5 1.7 1-0.2 2.3-0.4 3.6-0.8 0.4-0.2 0.8-0.5 1.2-0.7 3.8-2.2 5.7-3.5 6.7-4.4l-0.4-0.3c-2.1-1.7-4.7-2.1-7-1-2.1 0.9-3.7 2.8-4.6 5.5z" fill="" p-id="21320"></path><path d="M940.60251 440c-15.9 1.5-28.5-17.4-26.9-37.6 1.5-11.7 5.6-20 13.5-26.5 2-1.3 4.4-2.6 7-3.7 7.4-2.6 16.7-9 21.7 1.3 2.5 3.5 3.6 15.3-1.6 16.8-7.9 4.8-10.1-17.2-20.1-10.9-2 1-3.9 3-5.7 5.6-3.5 5.1-6.2 12.6-7 19.3-0.1 8.4 3.6 17 8.7 22.2 4.7 3.5 9.3 3.9 14 2.8 2.3-0.5 4.7-1.4 7-2.4 7.7 0.5 14.4-12.7 19.5-4.2 3.8 6.9-5.4 9.9-10.1 13-2.3 1.1-4.7 2.1-7.1 2.7-2.4 0.7-4.8 1.1-7.3 1.2-1.9 0.4-3.7 0.5-5.6 0.4z" fill="" p-id="21321"></path><path d="M938.90251 443.1c-6.4 0-12.5-2.9-17.6-8.3-7.4-8-11.3-20.5-10.3-32.6v-0.1c1.6-12.8 6.1-21.6 14.6-28.5l0.2-0.1c2.1-1.4 4.7-2.8 7.5-4l0.2-0.1c1.2-0.4 2.5-0.9 3.8-1.5 6.3-2.6 15.7-6.5 21.1 4 2.4 3.6 3.3 10.9 1.8 15.7-0.9 2.8-2.5 4.8-4.7 5.5-5.7 3.2-9.5-2.5-12.1-6.3-3.5-5.2-5-6.5-7.7-4.8l-0.2 0.1c-1.5 0.8-3.1 2.4-4.6 4.7-3.2 4.7-5.7 11.7-6.5 17.8-0.1 7 2.9 14.7 7.7 19.6 3.5 2.6 7.1 3.2 11.7 2.2 1.9-0.4 3.9-1.1 6.5-2.2l0.6-0.2h0.6c2.2 0.1 4.8-1.7 7.3-3.4 3-2.1 6.1-4.3 9.5-3.5 1.9 0.5 3.6 1.8 5 4.1 1.3 2.3 1.6 4.6 1.1 6.7-1.1 4.3-5.4 6.7-9.2 8.8-1 0.6-2 1.1-2.8 1.7l-0.3 0.2c-2.5 1.2-5 2.2-7.6 2.9-2.6 0.7-5.2 1.2-7.8 1.3-1.8 0.2-3.7 0.2-5.7 0.2-0.9 0-1.5 0.1-2.1 0.1zM916.50251 402.7c-0.8 10.4 2.5 21 8.7 27.8 4.4 4.7 9.7 7 15.1 6.5h0.4c1.7 0.1 3.5 0 5.2-0.1 2.4-0.2 4.7-0.5 6.9-1.2 2.2-0.6 4.4-1.4 6.5-2.5 0.9-0.6 1.9-1.2 3-1.8 2.5-1.4 6-3.3 6.5-5.1 0-0.2 0.2-0.8-0.5-1.9-0.3-0.5-0.9-1.3-1.4-1.4-1.1-0.2-3.3 1.3-5.2 2.7-2.9 2.1-6.2 4.4-10 4.4-2.6 1.1-4.8 1.8-6.9 2.3-6.2 1.4-11.3 0.3-16.1-3.3l-0.3-0.3c-6-6.1-9.8-15.7-9.6-24.4v-0.3c0.8-7.2 3.7-15.1 7.5-20.7 2.1-3.1 4.3-5.2 6.6-6.5 7.4-4.6 12.1 2.3 14.9 6.5 3.1 4.6 3.9 5.1 5.1 4.4l0.3-0.2 0.3-0.1c0.5-0.1 0.9-0.7 1.2-1.7 1-3.3 0-8.7-1.1-10.3l-0.3-0.5c-2.7-5.6-6.4-4.7-14.3-1.5-1.3 0.6-2.7 1.1-4.1 1.6-2.4 1-4.6 2.1-6.3 3.3-6.9 5.8-10.7 13.3-12.1 24.3z" fill="" p-id="21322"></path><path d="M939.10251 442.1c-7.1 0.1-14.1-3.8-19.2-10.9-5.7-7.9-8.5-18.5-7.7-29 1.6-12.7 6-21.3 14.2-28l0.1-0.1c2.1-1.4 4.6-2.7 7.2-3.8 1.3-0.5 2.6-1 4-1.6 6.5-2.7 14.6-6.1 19.4 3.5 2.1 3 3.1 9.6 2 14.1-0.7 3.1-2.2 5.1-4.3 5.8-4.7 2.7-7.8-2-10.4-5.8-3.3-4.9-5.5-7.7-9.6-5.1l-0.1 0.1c-1.7 0.9-3.4 2.6-5.1 5.1-3.3 4.8-5.9 11.9-6.6 18.2-0.1 7.2 3.1 15.2 8 20.3 3.8 2.8 7.9 3.6 12.9 2.5 2-0.4 4.1-1.2 6.7-2.3l0.3-0.1h0.3c2.7 0.2 5.5-1.8 8.2-3.6 4.1-2.9 8.7-6.1 12.5 0.3 1.1 2 1.5 4 1.1 5.8-0.9 4.1-4.9 6.4-8.8 8.5-1.1 0.6-2.1 1.2-2.9 1.7l-0.1 0.1c-2.4 1.2-4.9 2.1-7.3 2.8-2.5 0.7-5 1.1-7.6 1.3-1.8 0.2-3.7 0.2-5.6 0.2h-1.6z m-11.1-64.4c-7.4 6-11.3 13.7-12.7 25.1-0.8 9.3 1.7 18.7 6.8 25.7 4.9 6.7 11.6 10.2 18.4 9.5h0.2c1.8 0.1 3.6 0 5.4-0.1 2.4-0.2 4.8-0.6 7.1-1.2s4.6-1.5 6.8-2.6c0.9-0.6 1.9-1.2 3-1.8 2.8-1.5 6.6-3.7 7-5.9 0-0.2 0.2-1-0.6-2.3-2-3.3-4-2.3-8.6 0.9-2.8 2-6 4.2-9.5 4.1-2.7 1.1-4.9 1.9-6.9 2.3-5.7 1.3-10.5 0.3-15-3.1l-0.2-0.2c-5.8-5.9-9.5-15.3-9.3-23.8v-0.3c0.8-7.1 3.6-14.9 7.4-20.4 2-2.9 4.1-5 6.2-6.1 6.3-3.9 10.1 1.6 13.1 6.1 2.7 4.1 4.4 6.3 7 4.7l0.3-0.1c0.4-0.1 1.6-0.5 2.2-3.1 0.8-3.5-0.1-8.6-1.4-10.3l-0.2-0.3c-3.3-6.7-8.4-5.1-16-2-1.3 0.6-2.7 1.1-4.1 1.6-2.2 1.1-4.5 2.3-6.4 3.6z" fill="#FFFFFF" p-id="21323"></path><path d="M938.90251 445.1c-7.9 0-15.6-4.4-21.2-12-6.2-8.5-9.2-19.8-8.2-31.2v-0.1c1.7-13.5 6.5-22.8 15.3-30l0.3-0.2c2.2-1.5 4.9-2.9 7.7-4.1l0.1-0.1c1.2-0.4 2.5-0.9 3.8-1.5 6.3-2.6 16.8-7 22.8 4.7 2.5 3.8 3.6 11.1 2.4 16.5-0.9 4-3 6.8-6 7.9-6.7 3.6-11.2-3.2-13.7-6.8-3.8-5.6-4.4-5.3-5.9-4.3l-0.3 0.2c-1.2 0.6-2.7 2.1-4.1 4.1-3 4.4-5.4 10.9-6.1 16.6 0 6.3 2.7 13.2 7 17.7 3.1 2.3 6.4 2.8 10.6 1.9 1.8-0.4 3.8-1.1 6.3-2.1l0.8-0.4 0.9 0.1c1.8 0.1 4.2-1.6 6.5-3.2 2.9-2.1 6.6-4.6 10.5-3.7 2.3 0.5 4.3 2.2 5.9 4.9 1.5 2.7 2 5.4 1.4 8.1-1.1 5.5-6 8.2-10.2 10.5-1 0.6-2 1.1-2.7 1.6l-0.4 0.3c-2.6 1.3-5.2 2.3-7.8 3-2.7 0.7-5.4 1.2-8.1 1.4-1.8 0.2-3.7 0.3-5.7 0.2-0.5 0-1.1 0.1-1.6 0.1-0.2-0.1-0.3-0.1-0.3-0.1z m-9.3-13.2c3.3 2.3 7 3.4 10.7 3.1h0.5c1.8 0.1 3.4 0 5.1-0.1 2.3-0.2 4.5-0.5 6.7-1.1 2.1-0.6 4.2-1.4 6.2-2.4 0.9-0.6 1.9-1.2 3-1.8 1.3-0.7 4.7-2.6 5.5-3.8 0-0.1-0.1-0.2-0.1-0.2-0.2-0.4-0.4-0.5-0.4-0.6-0.8 0.1-3.4 1.8-4.2 2.4-2.8 2-6.4 4.5-10.4 4.6-2.6 1.1-4.8 1.8-6.9 2.3-6 1.3-11.1 0.5-15.7-2.4z m-7.6-8.9c0.7 1.3 1.4 2.4 2.2 3.6 0.1 0.1 0.1 0.2 0.2 0.3l-2.4-3.9z m45.3 3.1z m-25.3-51.6c3.1 1.8 5.4 5.2 6.9 7.5 0.8 1.2 2.5 3.7 3.2 4 0 0 0.1 0 0.2-0.1l0.9-0.4c0.1-0.1 0.2-0.4 0.3-0.9 0.6-2.8-0.3-6.9-0.9-7.7l-0.5-0.8c-1.7-3.6-3.6-4.1-10.1-1.6z" fill="" p-id="21324"></path><path d="M1055.00251 420.9c0 2-1.1 4.2-3.2 6.5-15 16.1-37.2 18.8-54 8.1-9-7-14-17.3-16.4-29.2-1.1-10.1 0.4-20.2 8.3-25 14.5-9.6 30.1-9.1 45.7-8.6 7.8 0.3 18 10.7 10.1 20.5-13.3 14.7-40.5 8.7-43.4 22.1-4.4 26.8 34.9 13 50.8 2.3 1.4 0.2 2.1 1.3 2.1 3.3z m-61.9-17.6c12-9.6 34-0.5 40.8-20.4-13-3.8-26.1 0.8-37.7 9.3-2.3 3.1-3.2 6.8-3.1 11.1z" fill="" p-id="21325"></path><path d="M1019.60251 444.9c-8 0-16-2.2-23.2-6.8l-0.2-0.2c-8.9-6.9-14.8-17.4-17.5-31v-0.3c-1.5-13.5 1.8-23.2 9.7-27.9 15.1-10 31.4-9.5 47.2-8.9 5.9 0.2 12.2 4.8 14.6 10.7 2 5 1.1 10.3-2.5 14.8l-0.1 0.1c-7.1 7.8-17.4 10.2-26.5 12.3-8.1 1.8-15.1 3.4-16.2 8.3-1.2 7.3 1.6 9.3 2.5 9.9 8.1 5.9 31.9-2.6 44-10.8l0.7-0.5 0.9 0.1c2.4 0.1 4.9 1.8 4.8 6.2-0.1 2.8-1.4 5.6-4 8.6-9.4 10.1-21.8 15.4-34.2 15.4zM999.30251 433c16.1 10.1 36.8 7 50.5-7.7 1.4-1.5 2-2.7 2.3-3.6-12.4 7.5-37.1 17.1-47.9 9.3-3.1-2.2-6.4-6.8-4.9-16v-0.1c1.8-8.7 10.9-10.8 20.5-12.9 8.3-1.9 17.7-4 23.6-10.5 2.2-2.7 2.7-5.5 1.6-8.4-1.5-3.8-5.9-7-9.7-7.1-15.6-0.5-30.4-1-44.2 8.1-5.8 3.5-8.2 10.9-7 21.9 2.5 11.9 7.6 21 15.2 27z m-8.9-23.8l-0.1-5.8c-0.1-5.2 1.1-9.6 3.7-13.1l0.3-0.4 0.4-0.3c13.7-10 27.6-13.4 40-9.7l2.9 0.9-1.1 3.1c-4.8 13.8-16 15.4-25.9 16.8-6.1 0.9-11.8 1.7-15.9 5l-4.3 3.5z m7.7-14.8c-0.7 1-1.3 2.2-1.6 3.5 4.2-1.8 8.9-2.5 13.5-3.1 8.5-1.2 15.9-2.3 20-9.8-10-1.8-20.7 1.4-31.9 9.4z" fill="" p-id="21326"></path><path d="M1020.00251 443.9c-7.9 0.1-15.8-2.1-22.8-6.6l-0.1-0.1c-8.7-6.8-14.4-17-17.1-30.4v-0.2c-1.5-13.2 1.7-22.6 9.1-27.1 14.8-9.8 30.9-9.3 46.4-8.7 5.2 0.2 12 4.6 13.9 11.4 1.3 4.4 0.2 8.9-2.9 12.7-6.9 7.6-16.9 9.9-25.8 11.9-8.6 2-15.9 3.6-17.1 9.2-0.7 4.5-0.1 7.8 2 9.9 7.6 7.8 33.1-0.8 46.6-10l0.4-0.2h0.4c2.3 0.1 3.7 2.1 3.6 5.2 0 2.6-1.3 5.3-3.8 8-9.1 9.8-20.9 14.9-32.8 15zM998.50251 433.7c16.6 10.6 38.1 7.3 52.3-7.9 1.7-1.9 2.6-3.6 2.7-5 0-0.7-0.1-0.9-0.3-1-13 8.6-40.1 18.9-49.5 9.3-2.1-2.1-4.4-6.3-3.1-14.1 1.7-8.2 10-10.1 19.6-12.2 8.5-1.9 18.1-4.1 24.3-11 2.1-2.6 2.8-5.4 2-8.2-1.3-4.5-6.5-8.6-11.1-8.8-15.2-0.5-30.9-1-45 8.3-6.2 3.8-8.7 11.4-7.4 22.8 2.4 12.3 7.7 21.6 15.5 27.8z m-6.9-26.8l-0.1-3.5c-0.1-5 1.1-9.3 3.5-12.6l0.2-0.2 0.2-0.1c13.4-9.8 26.8-13 38.8-9.5l1.9 0.5-0.8 2.3c-4.5 13.2-14.9 14.6-24.9 16.1-6.3 0.9-12.2 1.7-16.6 5.3l-2.2 1.7z m5.5-13.1c-1.2 1.7-2 3.7-2.3 6 4.6-2.6 10-3.4 15.3-4.1 8.8-1.3 17.2-2.4 21.5-11.4-10.7-2.3-22.6 0.9-34.5 9.5z" fill="#FFFFFF" p-id="21327"></path><path d="M1019.60251 446.9c-8.4 0-16.7-2.4-23.9-7l-0.3-0.2c-9.2-7.2-15.4-18-18.2-32.2l-0.1-0.5c-2-18.4 4.6-26.5 10.5-30.1 15.4-10.2 31.9-9.7 47.8-9.1 6.3 0.2 14.2 5.3 16.5 13.5 1.6 5.4 0.3 10.9-3.4 15.5l-0.1 0.1c-7.5 8.3-18 10.7-27.2 12.8-7.3 1.7-14.1 3.2-15 6.9-0.8 5.1 0.7 6.6 1.2 7.1 5.9 6 29.1-0.8 43.2-10.3l1.1-0.7 1.3 0.1c3.8 0.2 6.4 3.5 6.3 8.3-0.1 3.4-1.6 6.7-4.6 10.1-9.4 10.1-21.8 15.8-34.7 15.9-0.1-0.2-0.2-0.2-0.4-0.2z m-19.5-15.7c13.7 8.6 30.9 7.2 43.8-2.9-14.3 6.7-33.6 11.7-42.1 3-2.6-2.7-5.4-7.7-3.9-16.8v-0.1c1.3-5.9 5.1-9.1 10-11.2-4.8 0.7-9.2 1.7-12.4 4.3l-6.6 5.3-0.2-9.3c-0.1-5.8 1.3-10.6 4.1-14.5l0.4-0.6 0.6-0.4c6.2-4.5 12.5-7.8 18.7-9.6-7.2 1-14.2 3.1-20.7 7.4-5.2 3.1-7.2 9.7-6.2 19.7 2.4 11.3 7.2 20 14.5 25.7z m39.7-51.7l-1.8 5.3c-2.2 6.4-5.6 10.3-9.6 12.9 5.3-1.6 10.5-3.9 14.1-7.9 2.2-2.7 1.6-4.6 1.4-5.3-0.6-1.9-2.2-3.8-4.1-5z m-15.1 7.1c-7.2 0-14.9 2.5-22.7 7.5 2.6-0.6 5.2-1 7.8-1.3 6.8-1 12.9-1.8 16.9-6.1-0.7-0.1-1.4-0.1-2-0.1z m9.7-8.8c0.2 0.1 0.4 0.1 0.6 0.2l4.6 1.4c-1.4-0.9-2.9-1.5-4.3-1.5-0.3 0-0.6-0.1-0.9-0.1z" fill="" p-id="21328"></path></svg>