<?xml version="1.0" standalone="no"?><!DOCTYPE svg PUBLIC "-//W3C//DTD SVG 1.1//EN" "http://www.w3.org/Graphics/SVG/1.1/DTD/svg11.dtd"><svg t="1597044731298" class="icon" viewBox="0 0 1024 1024" version="1.1" xmlns="http://www.w3.org/2000/svg" p-id="21161" xmlns:xlink="http://www.w3.org/1999/xlink" width="200" height="200"><defs><style type="text/css"></style></defs><path d="M838.002 655.608c-15.563 15.583-26.273 51.48-60.347 75.562 3.727 6.164 4.976 13.904 2.662 21.542l-58.115 190.625c-4.26 13.843-18.43 21.83-31.761 17.734-13.33-4.034-20.662-18.553-16.443-32.457l54.02-176.987a197.73 197.73 0 0 1-37.004 3.256c-27.562 0-50.477-9.276-69.807-22.607a26.62 26.62 0 0 1 1.556 12.696l-25.106 197.67c-1.863 14.374-14.498 24.634-28.3 22.873-13.78-1.761-23.508-14.847-21.644-29.222l25.105-197.649c1.823-14.314 14.355-24.47 28.054-22.873-24.675-23.324-42.08-51.522-54.797-68.456l-3.42-4.096c-14.048-14.048-32.928 0.102-49.924 24.594-18.348 26.538-101.569 70.913-195.704-23.16-16.3-22.464-44.969-30.655-73.535 0-13.064 13.945-40.136 30.409-74.394 34.77 6.04 2.478 12.348 4.997 19.228 7.577l101.016 328.07s6.757 6.758 20.21 8.416c37.024-3.378 444.465 0 444.465 0s25.29 5.038 35.385-23.508c10.096-28.627 95.999-336.548 95.999-336.548s16.095-0.266 37.146-5.59a193.164 193.164 0 0 1-17.467-14.519c-12.328-8.17-22.546-12.245-47.078 12.287z" fill="#C17750" p-id="21162"></path><path d="M336.774 961.071c-13.33 4.095-27.542-3.89-31.822-17.734l-58.115-190.625c-4.178-13.904 3.153-28.443 16.443-32.436 13.29-4.055 27.522 3.89 31.74 17.774l58.156 190.564c4.219 13.884-3.112 28.402-16.402 32.457z m121.063 4.464c-13.822 1.761-26.477-8.498-28.259-22.873l-25.167-197.67c-1.802-14.354 7.864-27.48 21.706-29.2 13.761-1.741 26.437 8.477 28.26 22.873l25.166 197.649c1.802 14.395-7.904 27.46-21.706 29.221z" fill="#FCD345" p-id="21163"></path><path d="M992.341 503.276c-10.218-35.774-33.03-58.013-66.388-76.136-19.372-114.018-71.098-220.809-166.42-290.74C696.83 90.368 615.37 60.246 511.794 54.553c-66.04 3.42-121.329 16.915-167.854 36.757-177.09 75.5-225.519 244.788-238.46 320.023-31.106 13.556-57.46 44.272-70.75 79.883-14.13 37.924-13.372 81.275 12.348 115.022 20.047 26.15 37.371 46.709 101.978 73.207 34.258-4.362 61.33-20.846 74.394-34.771 28.587-30.655 57.235-22.464 73.535 0 89.896 81.664 157.37 16.32 175.759-10.239 18.347-26.539 46.975-22.484 61.227-2.048 24.532 32.703 75.685 85.023 136.995 89.078 110.292 4.095 122.517-74.743 147.008-99.255 24.532-24.511 34.812-20.436 47.057-12.307 24.43 22.771 47.14 33.952 67.453 37.372 30.164-14.089 60.266-40.484 65.856-89.856 0.47-21.071-1.638-38.784-6-54.142z" fill="#FFDE5D" p-id="21164"></path><path d="M454.376 738.665c-1.822-14.396-14.498-24.614-28.259-22.874-13.822 1.72-23.508 14.847-21.706 29.201l25.167 197.67c1.761 14.375 14.437 24.634 28.259 22.873 13.802-1.761 23.508-14.846 21.686-29.221l-25.147-197.65zM295.02 738.05c-4.218-13.883-18.43-21.829-31.74-17.774-13.29 3.993-20.62 18.532-16.443 32.436l58.115 190.625c4.26 13.843 18.491 21.83 31.822 17.734 13.29-4.034 20.62-18.553 16.402-32.457L295.02 738.05z" fill="#FCD345" p-id="21165"></path><path d="M572.798 738.665l-25.106 197.649c-1.863 14.375 7.864 27.46 21.645 29.221 13.822 1.761 26.436-8.498 28.3-22.873l25.105-197.67a26.355 26.355 0 0 0-1.556-12.696 177.253 177.253 0 0 1-20.355-16.505c-13.679-1.597-26.21 8.56-28.033 22.874z" fill="#FFDE5D" p-id="21166"></path><path d="M608.224 700.72z m21.317 10.628z m10.054 3.788z m-20.129-8.334z m30.368 11.344c2.376 0.553 4.71 0.983 7.085 1.434-2.355-0.45-4.71-0.86-7.085-1.434z m-75.214-42z m23.816 18.41z m-16.362-12.123z m78.265 37.843z m-70.3-31.638c1.598 1.167 3.257 2.314 4.895 3.481-1.638-1.167-3.297-2.314-4.894-3.48z m-22.217-18.634l2.539 2.396-2.54-2.396z m-4.587-4.362l-0.307-0.307 0.307 0.307z" fill="#C17750" p-id="21167"></path><path d="M542.634 643.24zM656.92 719.6c1.168 0.246 2.253 0.492 3.42 0.676-1.147-0.184-2.252-0.45-3.42-0.676z m-61.985-27.48c1.147 0.818 2.314 1.658 3.502 2.436-1.188-0.778-2.355-1.618-3.502-2.437z m11.631 7.637c0.533 0.349 1.126 0.635 1.659 0.963l-1.659-0.963zM570.361 672.4c1.372 1.27 2.846 2.498 4.26 3.747-1.414-1.25-2.888-2.498-4.26-3.747z m7.597 6.655c1.372 1.187 2.765 2.273 4.137 3.378-1.393-1.105-2.765-2.19-4.137-3.378z m8.17 6.573c1.29 0.983 2.58 2.027 3.912 2.99-1.331-0.963-2.621-2.007-3.911-2.99z m59.856 31.453l3.85 1.086a211.082 211.082 0 0 0-3.85-1.086z m-10.3-3.317z m-72.756-48.43z m4.894 4.67z m57.992 39.808z m-9.522-4.608c1.024 0.553 2.11 1.065 3.153 1.598-1.044-0.553-2.109-1.045-3.153-1.598z m-15.194 10.587c-0.082-0.04-0.164 0-0.267 0 6.308 5.918 13.106 11.488 20.355 16.505a24.84 24.84 0 0 0-20.088-16.505z m-55.044-68.497a30.163 30.163 0 0 0-3.42-4.054c1.106 1.33 2.212 2.682 3.42 4.095v-0.04z" fill="#B35F3A" p-id="21168"></path><path d="M992.341 503.276c-10.218-35.774-33.03-58.013-66.388-76.136-19.372-114.018-71.098-220.809-166.42-290.74C696.83 90.368 615.37 60.246 511.794 54.553a572.385 572.385 0 0 0-43.74 3.973c83.63 10.648 151.452 38.334 205.267 77.855 95.364 69.93 147.09 176.721 166.462 290.74 33.316 18.102 56.17 40.361 66.388 76.135 4.34 15.358 6.47 33.092 6.02 54.184-3.338 29.467-15.46 50.6-31.064 65.958 18.347 13.822 35.59 21.215 51.378 23.897 30.163-14.088 60.265-40.484 65.855-89.855 0.45-21.092-1.658-38.805-6.02-54.163z" fill="#FCD345" p-id="21169"></path><path d="M532.007 236.085a30.307 30.307 0 1 0-60.614 0.02 30.307 30.307 0 0 0 60.614-0.02m195.17 51.255a30.327 30.327 0 0 0-60.613 0 30.286 30.286 0 1 0 60.614 0m-12.533 156.94a30.307 30.307 0 1 0 0.062 60.593 30.307 30.307 0 0 0-0.062-60.593m-201.724-30.286a30.307 30.307 0 1 0 0 60.613 30.307 30.307 0 0 0 0-60.613M330.344 296.74a30.286 30.286 0 1 0-0.04 60.572 30.286 30.286 0 0 0 0.04-60.572m-54.388 147.54a30.307 30.307 0 1 0-0.041 60.573 30.307 30.307 0 0 0 0.04-60.573M474.3 37.72a37.7 37.7 0 1 0 75.4 0 37.7 37.7 0 1 0-75.4 0z" fill="#FF6F56" p-id="21170"></path><path d="M509.747 21.91c0 5.898-4.71 10.65-10.668 10.65a10.648 10.648 0 1 1 0-21.297 10.619 10.619 0 0 1 10.668 10.648z" fill="#FFFFFF" p-id="21171"></path><path d="M531.372 5.529c3.42 5.672 5.529 12.245 5.529 19.33 0 20.826-16.935 37.68-37.679 37.68-7.167 0-13.679-2.09-19.372-5.51C486.403 68.027 498.28 75.4 512 75.4a37.679 37.679 0 0 0 37.7-37.68c0-13.74-7.352-25.617-18.328-32.19z" fill="#F94E41" p-id="21172"></path><path d="M572.798 738.665l-25.106 197.649c-1.863 14.375 7.864 27.46 21.645 29.221 13.822 1.761 26.436-8.498 28.3-22.873l25.105-197.67a26.355 26.355 0 0 0-1.556-12.696 177.253 177.253 0 0 1-20.355-16.505c-13.679-1.597-26.21 8.56-28.033 22.874z m156.468-0.39l-56.333 195.09c-4.096 14.17 3.604 28.873 17.2 32.846 13.639 3.89 27.994-4.423 32.069-18.614l56.354-195.09c1.29-4.443 2.662-11.016 1.76-15.194-0.122-6.04-0.757-11.754-19.269-17.651-13.535-3.81-27.685 4.464-31.78 18.614z" fill="#FCD345" p-id="21173"></path><path d="M492.71 667.833c16.976-24.491 35.877-38.641 49.924-24.593a275.28 275.28 0 0 1-8.62-10.833c-14.253-20.437-42.88-24.491-61.228 2.048-18.39 26.559-85.863 91.903-175.759 10.238 94.115 94.054 177.335 49.679 195.683 23.14z m411.7-10.525c3.113-0.799 6.349-1.802 9.686-2.888l4.137-1.33c4.71-1.68 9.522-3.543 14.314-5.775-20.314-3.42-43.024-14.6-67.453-37.372a73.78 73.78 0 0 0-5.55-3.276c-0.491-0.287-1.065-0.492-1.556-0.717a23.918 23.918 0 0 0-4.935-1.72c-0.369-0.062-0.758-0.225-1.106-0.266a19.76 19.76 0 0 0-6.573 0.082c-0.369 0.081-0.799 0.266-1.208 0.348a26.314 26.314 0 0 0-6.39 2.498c-0.409 0.184-0.716 0.184-1.126 0.41l0.144 0.081c-5.242 2.867-11.283 7.413-18.758 14.888-24.47 24.49-36.695 103.35-147.008 99.254a115.636 115.636 0 0 1-10.668-1.208c-1.168-0.184-2.253-0.43-3.42-0.676-2.355-0.45-4.71-0.88-7.085-1.433l-3.85-1.086a126.51 126.51 0 0 1-10.3-3.296 105.562 105.562 0 0 1-6.123-2.417 88.401 88.401 0 0 1-3.727-1.536 257.28 257.28 0 0 1-6.369-3.01c-1.064-0.532-2.13-1.044-3.153-1.597a155.834 155.834 0 0 1-8.089-4.485c-0.532-0.327-1.126-0.614-1.658-0.962a219.56 219.56 0 0 1-8.13-5.201c-1.208-0.779-2.355-1.618-3.502-2.437-1.638-1.167-3.296-2.314-4.894-3.481-1.33-0.983-2.62-2.028-3.91-2.99a131.937 131.937 0 0 1-4.035-3.195c-1.372-1.105-2.764-2.19-4.136-3.378l-3.338-2.929c-1.413-1.249-2.908-2.477-4.26-3.747l-2.539-2.396a236.606 236.606 0 0 1-4.587-4.362l-0.307-0.307a317.258 317.258 0 0 1-16.894-18c12.717 16.935 30.123 45.133 54.798 68.457 0.082 0 0.184-0.041 0.266 0 9.46 1.187 16.935 7.822 20.089 16.505 19.33 13.31 42.245 22.607 69.807 22.607 12.43 0 23.468-1.085 33.543-2.806 0.04 0.062 0 0.185 0.04 0.267l2.785-0.656c0.185-0.04 0.41-0.04 0.615-0.061v-0.123c9.788-2.396 39.726-10.771 55.248-24.593-26.211 93.377-66.204 235.122-72.92 254.125-10.075 28.587-35.324 23.53-35.324 23.53s-312.323-2.683-409.202-0.881l3.522 11.406s6.758 6.757 20.211 8.416c37.024-3.379 444.465 0 444.465 0s25.29 5.037 35.385-23.508c10.095-28.628 95.998-336.548 95.998-336.548s16.137-0.369 37.106-5.652l0.04 0.061c0.635-0.225 1.25-0.47 1.885-0.634z" fill="#B35F3A" p-id="21174"></path></svg>