<?xml version="1.0" standalone="no"?><!DOCTYPE svg PUBLIC "-//W3C//DTD SVG 1.1//EN" "http://www.w3.org/Graphics/SVG/1.1/DTD/svg11.dtd"><svg t="1597305557648" class="icon" viewBox="0 0 1024 1024" version="1.1" xmlns="http://www.w3.org/2000/svg" p-id="8866" xmlns:xlink="http://www.w3.org/1999/xlink" width="200" height="200"><defs><style type="text/css"></style></defs><path d="M322.620282 667.250913l0.068257 0.068257a52.694876 52.694876 0 0 0 74.537312-0.068257L974.275696 90.371712a52.86552 52.86552 0 0 0 0-74.742084L974.105051 15.493113a52.694876 52.694876 0 0 0-74.537311 0.170644L322.620282 592.508828a52.899649 52.899649 0 0 0 0 74.742085z" p-id="8867"></path><path d="M969.975466 431.181965h-0.204773c-29.623803 0-53.650482 24.060808-53.650482 53.684611v431.388102H107.813579V107.743274l431.319845 0.170644h0.034129a53.752869 53.752869 0 0 0 53.582225-53.923513v-0.204773c0-29.623803-23.99255-53.650482-53.582225-53.650482H53.480521A53.309194 53.309194 0 0 0 0.000683 53.717375l0.034128 916.767975c0.068258 14.231712 5.733639 27.883234 15.801637 37.985361 10.033869 9.99974 23.651262 15.596864 37.814717 15.528606h916.699718A53.411581 53.411581 0 0 0 1023.86485 970.348835l0.034129-485.482259a53.752869 53.752869 0 0 0-53.889384-53.650483z" p-id="8868"></path></svg>