<?xml version="1.0" standalone="no"?><!DOCTYPE svg PUBLIC "-//W3C//DTD SVG 1.1//EN" "http://www.w3.org/Graphics/SVG/1.1/DTD/svg11.dtd"><svg t="1597282558693" class="icon" viewBox="0 0 1024 1024" version="1.1" xmlns="http://www.w3.org/2000/svg" p-id="5730" xmlns:xlink="http://www.w3.org/1999/xlink" width="200" height="200"><defs><style type="text/css"></style></defs><path d="M989.866667 945.066667c-12.8 0-23.466667-10.666667-23.466667-23.466667 0-185.6-151.466667-334.933333-337.066667-334.933333-185.6 0-337.066667 149.333333-337.066666 334.933333 0 12.8-10.666667 23.466667-23.466667 23.466667s-23.466667-10.666667-23.466667-23.466667c0-157.866667 100.266667-302.933333 251.733334-358.4l6.4-6.4c0-4.266667-2.133333-6.4-4.266667-8.533333-76.8-46.933333-121.6-125.866667-121.6-215.466667 0-138.666667 113.066667-251.733333 253.866667-251.733333C768 78.933333 883.2 192 883.2 332.8c0 87.466667-44.8 168.533333-121.6 215.466667-2.133333 2.133333-4.266667 4.266667-4.266667 8.533333s2.133333 6.4 6.4 6.4c149.333333 55.466667 251.733333 200.533333 251.733334 358.4-2.133333 12.8-12.8 23.466667-25.6 23.466667zM629.333333 128c-113.066667 0-204.8 91.733333-204.8 204.8s91.733333 204.8 204.8 204.8 204.8-91.733333 204.8-204.8S742.4 128 629.333333 128z m-597.333333 817.066667c-12.8 0-23.466667-10.666667-23.466667-23.466667 0-157.866667 100.266667-302.933333 251.733334-358.4l6.4-6.4c0-4.266667-2.133333-6.4-4.266667-8.533333-76.8-46.933333-121.6-125.866667-121.6-215.466667 0-136.533333 113.066667-249.6 249.6-251.733333h4.266667c12.8 0 23.466667 10.666667 23.466666 23.466666 0 12.8-10.666667 23.466667-23.466666 23.466667h-2.133334c-113.066667 2.133333-202.666667 91.733333-202.666666 204.8 0 81.066667 49.066667 153.6 123.733333 185.6 21.333333 4.266667 34.133333 19.2 34.133333 38.4 0 17.066667-10.666667 32-27.733333 36.266667-2.133333 0-2.133333 2.133333-4.266667 2.133333-151.466667 36.266667-256 170.666667-256 324.266667-2.133333 14.933333-12.8 25.6-27.733333 25.6z" p-id="5731"></path></svg>