<?xml version="1.0" standalone="no"?><!DOCTYPE svg PUBLIC "-//W3C//DTD SVG 1.1//EN" "http://www.w3.org/Graphics/SVG/1.1/DTD/svg11.dtd"><svg t="1597123547135" class="icon" viewBox="0 0 1024 1024" version="1.1" xmlns="http://www.w3.org/2000/svg" p-id="17965" xmlns:xlink="http://www.w3.org/1999/xlink" width="200" height="200"><defs><style type="text/css"></style></defs><path d="M512 903.8C137 903.8 12 506 12 506S137 108.2 512 108.2C887 108.2 1012 506 1012 506S887 903.8 512 903.8zM512 240.8c-138 0-250 118.8-250 265.2 0 146.4 112 265.2 250 265.2 138 0 250-118.8 250-265.2C762 359.6 650 240.8 512 240.8zM512 638.6c-69 0-125-59.4-125-132.6 0-2.2 0.6-4.4 0.6-6.6 9.8 3.6 19.8 6.6 30.6 6.6 51.8 0 93.8-44.6 93.8-99.4 0-11.6-2.8-22.2-6.2-32.4 2.2-0.2 4-0.6 6.2-0.6 69 0 125 59.4 125 132.6C637 579.2 581 638.6 512 638.6z" p-id="17966"></path></svg>