<?xml version="1.0" standalone="no"?><!DOCTYPE svg PUBLIC "-//W3C//DTD SVG 1.1//EN" "http://www.w3.org/Graphics/SVG/1.1/DTD/svg11.dtd"><svg t="1597282554868" class="icon" viewBox="0 0 1024 1024" version="1.1" xmlns="http://www.w3.org/2000/svg" p-id="5602" xmlns:xlink="http://www.w3.org/1999/xlink" width="200" height="200"><defs><style type="text/css"></style></defs><path d="M766.862 108.657c-124.155 0-209.278 57.963-254.862 143.233-45.584-85.197-127.504-143.233-254.862-143.233-63.643 0-251.149 65.39-254.862 318.578 0.655 317.85 481.836 573.44 509.725 573.44 27.817 0 507.249-253.625 509.725-573.44-0.291-255.299-192.676-318.578-254.862-318.578l0 0zM735.405 784.333c-52.72 43.982-110.391 84.032-164.786 116.144-17.986 10.631-53.084 28.618-58.619 34.079 1.02 1.092 1.383 1.747 0 1.747-1.456 0-1.092-0.729 0-1.747-5.534-5.461-40.851-23.666-58.91-34.298-54.613-32.258-112.503-72.453-165.37-116.581-139.155-116.509-221.584-240.445-221.803-356.151 0.219-127.285 63.934-255.153 191.219-255.153 190.564 0 254.862 191.147 254.862 191.147s65.536-191.147 254.862-191.147c127.067 0 191.147 128.524 191.147 254.279 0 117.236-83.522 241.463-222.604 357.681l0 0zM735.405 784.333zM268.862 251.817c-18.86 3.714-44.637 14.491-70.124 36.627-11.286 9.83-21.482 21.117-30.437 34.151-4.66 6.991-8.957 14.272-12.67 21.845-18.205 36.263-23.884 72.453-23.301 100.561 0 0.801 0 0.801 0.073 1.238 0.582 17.549 15.51 31.238 32.987 30.583 17.622-0.655 31.312-15.583 30.656-33.132-0.364-18.641 3.787-45.293 16.53-70.634 2.548-5.098 5.389-9.977 8.519-14.637 5.753-8.447 12.306-15.655 19.442-21.918 16.02-13.836 31.676-20.462 40.56-22.137 17.185-3.423 28.471-20.098 25.195-37.283-3.495-17.33-20.171-28.618-37.428-25.268l0 0zM268.862 251.817z" p-id="5603"></path></svg>