<?xml version="1.0" standalone="no"?><!DOCTYPE svg PUBLIC "-//W3C//DTD SVG 1.1//EN" "http://www.w3.org/Graphics/SVG/1.1/DTD/svg11.dtd"><svg t="1597128134403" class="icon" viewBox="0 0 1283 1024" version="1.1" xmlns="http://www.w3.org/2000/svg" p-id="14780" xmlns:xlink="http://www.w3.org/1999/xlink" width="250.5859375" height="200"><defs><style type="text/css"></style></defs><path d="M1183.994086 542.07729a101.119494 101.119494 0 0 1-24.319878-3.199984l-87.039565 431.357843a63.99968 63.99968 0 0 1-63.99968 53.759731H296.958522a63.99968 63.99968 0 0 1-63.99968-53.759731L143.999286 530.557347a92.159539 92.159539 0 0 1-45.439772 11.519943 98.559507 98.559507 0 0 1 0-197.119015A97.91951 97.91951 0 0 1 193.27904 443.517782 99.839501 99.839501 0 0 1 167.039171 511.99744l229.758851 170.879146 247.678762-421.117895a127.99936 127.99936 0 0 1-121.599392-131.199344 127.99936 127.99936 0 1 1 255.99872 0 127.99936 127.99936 0 0 1-122.879386 131.199344l252.15874 421.117895 215.038924-161.919191A99.839501 99.839501 0 0 1 1089.27456 443.517782a97.279514 97.279514 0 1 1 96.639517 98.559508z" fill="#FF4800" p-id="14781"></path></svg>