<?xml version="1.0" standalone="no"?><!DOCTYPE svg PUBLIC "-//W3C//DTD SVG 1.1//EN" "http://www.w3.org/Graphics/SVG/1.1/DTD/svg11.dtd"><svg t="1597125138016" class="icon" viewBox="0 0 1024 1024" version="1.1" xmlns="http://www.w3.org/2000/svg" p-id="2506" xmlns:xlink="http://www.w3.org/1999/xlink" width="200" height="200"><defs><style type="text/css"></style></defs><path d="M94.224384 353.51552l0-54.710272c68.73088-46.1568 114.205696-114.259968 136.30976-204.243968l81.0496 0C282.112 225.86368 209.639424 312.19712 94.224384 353.51552zM94.224384 586.938368l0-58.35776c68.73088-46.160896 114.205696-111.808512 136.30976-196.950016l77.366272 0c-14.736384 53.511168-31.947776 96.082944-51.576832 127.65184l0 474.139648-81.0496 0L175.273984 543.168512C150.693888 557.759488 123.697152 572.347392 94.224384 586.938368zM282.112 889.655296l0-47.413248c39.258112-21.884928 63.838208-57.101312 73.680896-105.771008l62.628864 0C406.10304 811.86816 360.685568 862.871552 282.112 889.655296zM318.952448 408.22272 318.952448 353.51552l324.1984 0 0 54.7072-128.94208 0c-27.055104 36.472832-65.104896 71.749632-114.20672 105.771008 26.99776 0 62.629888-2.394112 106.838016-7.293952-2.475008 0 0 0 7.368704 0 12.260352-14.590976 25.788416-29.17888 40.5248-43.769856l84.732928 0c-73.680896 80.238592-151.046144 143.495168-232.095744 189.656064 71.205888 0 132.626432-3.646464 184.203264-10.940416-2.475008-12.13952-8.634368-29.17888-18.420736-51.059712-2.475008-4.845568-4.950016-8.493056-7.368704-10.944512l58.945536 0c29.471744 46.21824 49.1008 94.830592 58.944512 145.890304l-66.313216 0-7.36768-32.825344c-27.055104 4.902912-55.261184 7.293952-84.733952 7.293952l0 138.596352c0 55.906304-29.471744 83.88608-88.41728 83.88608l-47.89248 0 0-62.004224 29.471744 0c26.99776 2.394112 39.259136-8.546304 36.840448-32.822272L455.262208 703.649792c-39.315456 2.44736-87.207936 3.646464-143.67744 3.646464l0-54.710272c49.1008-29.17888 93.309952-59.552768 132.626432-91.179008-34.423808 2.451456-77.365248 3.646464-128.94208 3.646464l0-54.7072c36.840448-21.884928 74.89024-55.906304 114.205696-102.12352L318.952448 408.22272zM330.00448 306.102272 330.00448 127.386624l62.628864 0L392.633344 251.392l62.628864 0L455.262208 94.56128l69.997568 0L525.259776 251.392l22.104064 0c29.472768 2.451456 42.942464-12.136448 40.525824-43.766784l0-80.238592 62.628864 0 0 94.826496c2.417664 58.35776-27.055104 86.337536-88.41728 83.889152L330.00448 306.102272zM956.295168 933.42208c-71.263232-63.256576-120.365056-116.711424-147.361792-160.477184-29.472768 46.21824-78.63296 98.477056-147.362816 156.83072l0-65.647616c-58.945536-17.042432-93.36832-59.552768-103.153664-127.655936l62.628864 0c7.368704 41.375744 26.99776 72.94464 58.945536 94.830592l0 7.293952c39.258112-46.160896 69.996544-89.92768 92.101632-131.299328-41.792512-77.791232-69.997568-183.558144-84.733952-317.308928l-29.472768 21.880832 0-62.001152c49.101824-58.35776 78.574592-142.242816 88.41728-251.661312l77.365248 0c-4.950016 41.375744-11.052032 76.592128-18.420736 105.771008l162.0992 0 0 62.004224L926.8224 265.981952c2.417664 187.261952-24.579072 335.543296-81.0496 444.960768 26.99776 53.511168 63.838208 103.375872 110.522368 149.533696L956.295168 933.42208zM808.933376 623.407104c29.471744-92.37504 44.208128-211.53792 44.208128-357.424128l-69.997568 0c-14.736384 31.62624-31.946752 59.606016-51.576832 83.88608l25.78944 0C769.616896 469.02784 786.828288 560.210944 808.933376 623.407104z" p-id="2507"></path></svg>