<?xml version="1.0" standalone="no"?><!DOCTYPE svg PUBLIC "-//W3C//DTD SVG 1.1//EN" "http://www.w3.org/Graphics/SVG/1.1/DTD/svg11.dtd"><svg t="1597128144972" class="icon" viewBox="0 0 1024 1024" version="1.1" xmlns="http://www.w3.org/2000/svg" p-id="15178" xmlns:xlink="http://www.w3.org/1999/xlink" width="200" height="200"><defs><style type="text/css"></style></defs><path d="M316.027586 1016.937931c-120.055172 0-211.862069-52.965517-211.862069-127.117241 0-38.841379 24.717241-74.151724 70.62069-95.337931l31.77931 63.55862c-21.186207 10.593103-31.77931 24.717241-31.77931 31.779311 0 21.186207 56.496552 56.496552 141.241379 56.496551s141.241379-35.310345 141.24138-56.496551c0-10.593103-14.124138-24.717241-31.779311-31.779311-14.124138-7.062069-31.77931-14.124138-49.434483-17.655172l14.124138-70.62069c24.717241 3.531034 49.434483 14.124138 67.089656 24.717242 45.903448 24.717241 70.62069 56.496552 70.620689 95.337931 0 70.62069-91.806897 127.117241-211.862069 127.117241z" fill="#1C69D3" p-id="15179"></path><path d="M284.248276 911.006897L51.2 109.462069l21.186207-14.124138C185.37931 14.124138 312.496552-3.531034 453.737931 35.310345c77.682759 21.186207 141.241379 52.965517 190.675862 77.682758 84.744828 42.372414 127.117241 60.027586 173.02069 38.84138 63.558621-31.77931 130.648276-60.027586 162.427586-14.124138l10.593103 14.124138-3.531034 14.124138c-56.496552 222.455172-162.427586 338.97931-314.262069 346.041379-45.903448 3.531034-88.275862 0-127.117241 0-116.524138-3.531034-183.613793-3.531034-271.889656 88.275862l84.744828 289.544828-74.151724 21.186207zM132.413793 137.710345l112.993104 388.413793c98.868966-88.275862 183.613793-84.744828 296.606896-84.744828h120.055173c112.993103-7.062069 190.675862-88.275862 240.110344-254.234482-14.124138 3.531034-31.77931 10.593103-56.496551 24.717241-77.682759 38.841379-151.834483 3.531034-236.579311-38.841379-49.434483-24.717241-105.931034-52.965517-180.082758-74.151724-105.931034-31.77931-204.8-17.655172-296.606897 38.841379z" fill="#1C69D3" p-id="15180"></path></svg>