<?xml version="1.0" standalone="no"?><!DOCTYPE svg PUBLIC "-//W3C//DTD SVG 1.1//EN" "http://www.w3.org/Graphics/SVG/1.1/DTD/svg11.dtd"><svg t="1596703170990" class="icon" viewBox="0 0 1370 1024" version="1.1" xmlns="http://www.w3.org/2000/svg" p-id="12750" xmlns:xlink="http://www.w3.org/1999/xlink" width="267.578125" height="200"><defs><style type="text/css"></style></defs><path d="M939.332786 655.258173c-18.583468 0-33.475699 14.892231-33.475699 33.475699v251.385954c0 9.291734-7.509758 16.801492-16.801491 16.801492H134.897734c-9.291734 0-16.801492-7.509758-16.801492-16.801492V688.861156c0-18.583468-14.892231-33.475699-33.475699-33.475699-18.583468 0-33.475699 14.892231-33.475699 33.475699v251.385954c0 46.585954 37.29422 83.75289 83.75289 83.75289h754.157862c46.585954 0 83.75289-37.29422 83.75289-83.75289V688.861156c0-18.710752-14.892231-33.602983-33.4757-33.602983z m83.75289-370.523804v-3.691237c0-9.291734-1.90926-18.583468-5.600497-27.875202l-1.90926-5.600497c-1.90926-1.90926-117.355873-201.108763-119.13785-204.8-11.200994-24.183965-27.875202-42.767433-81.970913-42.767433h-603.32629c-48.36793 0-68.860659 22.401989-83.75289 48.36793L12.068647 243.748912l-1.90926 3.691237C4.55889 258.641144 0.867653 269.842138 0.867653 282.952393v178.706774c0 89.353387 68.860659 160.123306 152.740833 160.123307 46.585954 0 91.262648-22.401989 119.137849-59.568925 29.784462 37.29422 72.67918 59.568925 119.13785 59.568925 46.585954 0 91.262648-22.401989 119.137849-59.568925 29.784462 37.29422 72.67918 59.568925 119.13785 59.568925 46.585954 0 91.262648-22.401989 119.13785-59.568925 29.784462 37.29422 72.67918 59.568925 119.137849 59.568925 83.75289 0 152.740833-72.67918 152.740833-160.123307l1.90926-176.924798zM185.174924 81.84363c7.509758-11.200994 12.982971-14.892231 26.093226-14.892232h601.417029c12.982971 0 16.801492 0 26.093226 14.892232 24.183965 39.076196 46.585954 78.152393 70.769919 117.355873H114.405005C149.789965 141.412554 173.97393 100.427098 185.174924 81.84363z m772.74133 379.815537c0 50.277191-39.076196 91.262648-85.66215 91.262648-48.36793 0-85.66215-40.985457-85.66215-91.262648v-26.093225c-3.691237-18.583468-16.801492-35.38496-35.38496-35.38496-18.583468 0-33.475699 14.892231-33.475699 33.475699v26.093226c0 50.277191-39.076196 91.262648-85.662151 91.262647-48.36793 0-85.66215-40.985457-85.66215-91.262647v-26.093226c0-18.583468-14.892231-33.475699-33.475699-33.475699-18.583468 0-33.475699 14.892231-33.475699 33.475699v26.093226c0 50.277191-39.076196 91.262648-85.662151 91.262647-46.585954 0-85.66215-40.985457-85.66215-91.262647v-26.093226c0-18.583468-14.892231-33.475699-33.475699-33.475699s-33.475699 14.892231-33.4757 33.475699v26.093226c0 50.277191-39.076196 91.262648-85.66215 91.262647-48.36793 0-85.66215-40.985457-85.66215-91.262647V284.734369c0-7.509758 5.600497-14.892231 14.892231-14.892231h858.40348c9.291734 0 14.892231 7.509758 14.892231 14.892231v176.924798z m0 0" p-id="12751"></path></svg>