<?xml version="1.0" standalone="no"?><!DOCTYPE svg PUBLIC "-//W3C//DTD SVG 1.1//EN" "http://www.w3.org/Graphics/SVG/1.1/DTD/svg11.dtd"><svg t="1597203404751" class="icon" viewBox="0 0 1024 1024" version="1.1" xmlns="http://www.w3.org/2000/svg" p-id="31875" xmlns:xlink="http://www.w3.org/1999/xlink" width="200" height="200"><defs><style type="text/css"></style></defs><path d="M316.137659 462.068797c-46.239114 0-83.795475-37.448914-83.795475-83.389222 0-45.966914 37.556361-83.387175 83.795475-83.387175 46.130643 0 83.795475 37.420261 83.795475 83.387175C399.933133 424.619884 362.269325 462.068797 316.137659 462.068797L316.137659 462.068797zM316.137659 350.919325c-15.413038 0-27.948539 12.401448-27.948539 27.759227 0 15.331173 12.535501 27.761274 27.948539 27.761274s27.948539-12.429077 27.948539-27.761274C344.087221 363.321796 331.55172 350.919325 316.137659 350.919325L316.137659 350.919325zM511.5697 462.068797c-46.184879 0-83.741239-37.448914-83.741239-83.389222 0-45.966914 37.556361-83.387175 83.741239-83.387175s83.741239 37.420261 83.741239 83.387175C595.310939 424.619884 557.754578 462.068797 511.5697 462.068797L511.5697 462.068797zM511.5697 350.919325c-15.413038 0-27.948539 12.401448-27.948539 27.759227 0 15.331173 12.535501 27.761274 27.948539 27.761274s27.841092-12.429077 27.841092-27.761274C539.410791 363.321796 526.982738 350.919325 511.5697 350.919325L511.5697 350.919325zM707.002764 462.068797c-46.24116 0-83.797521-37.448914-83.797521-83.389222 0-45.966914 37.556361-83.387175 83.797521-83.387175 46.130643 0 83.795475 37.420261 83.795475 83.387175C790.798239 424.619884 753.133408 462.068797 707.002764 462.068797L707.002764 462.068797zM707.002764 350.919325c-15.413038 0-27.950586 12.401448-27.950586 27.759227 0 15.331173 12.537548 27.761274 27.950586 27.761274 15.412015 0 27.895327-12.429077 27.895327-27.761274C734.898091 363.321796 722.414779 350.919325 707.002764 350.919325L707.002764 350.919325zM316.137659 686.074617l0-55.574736 586.296123 0L902.433782 158.092621 120.706641 158.092621l0 599.078241 89.601714-115.843378 44.178175 33.918507L64.860728 920.581606 64.860728 102.517885 958.278671 102.517885l0 583.556733L316.137659 686.074617 316.137659 686.074617z" p-id="31876"></path></svg>