<?xml version="1.0" standalone="no"?><!DOCTYPE svg PUBLIC "-//W3C//DTD SVG 1.1//EN" "http://www.w3.org/Graphics/SVG/1.1/DTD/svg11.dtd"><svg t="1597125068213" class="icon" viewBox="0 0 1024 1024" version="1.1" xmlns="http://www.w3.org/2000/svg" p-id="1567" xmlns:xlink="http://www.w3.org/1999/xlink" width="200" height="200"><defs><style type="text/css"></style></defs><path d="M133.525504 604.453888l0-55.422976L983.3472 549.030912l0 55.422976L133.525504 604.453888zM144.610304 268.220416l0-48.033792c108.363776-24.594432 185.956352-66.507776 232.777728-125.625344l103.456768 0c-7.390208 12.35456-19.743744 27.133952-36.948992 44.338176l314.064896 0 0 44.338176c-24.651776 22.1696-48.033792 40.643584-70.202368 55.422976l214.30272 0 0 158.879744c2.424832 71.472128-34.52416 105.939968-110.845952 103.456768L218.507264 500.99712 218.507264 253.441024c-2.482176 0-6.176768 0-11.0848 0C192.644096 255.924224 171.686912 260.830208 144.610304 268.220416zM233.28768 933.298176 233.28768 656.182272l650.298368 0 0 177.353728c2.424832 68.932608-34.52416 102.187008-110.845952 99.762176L233.28768 933.298176zM650.80832 183.238656 388.471808 183.238656c-24.651776 19.743744-65.29536 38.218752-121.930752 55.422976l317.759488 0C601.504768 228.846592 623.674368 210.372608 650.80832 183.238656zM310.879232 286.6944l0 59.117568L510.40256 345.811968l0-59.117568L310.879232 286.6944zM310.879232 452.964352 510.40256 452.964352l0-62.813184L310.879232 390.151168 310.879232 452.964352zM329.35424 704.216064l0 66.507776 458.165248 0 0-66.507776L329.35424 704.216064zM329.35424 881.569792l413.826048 0c29.558784 0 44.338176-13.568 44.338176-40.643584l0-22.1696L329.35424 818.756608 329.35424 881.569792zM809.688064 286.6944 606.470144 286.6944l0 59.117568 203.21792 0L809.688064 286.6944zM761.654272 452.964352c34.466816 2.4832 50.458624-14.779392 48.033792-51.728384l0-11.0848L606.470144 390.151168l0 62.813184L761.654272 452.964352z" p-id="1568"></path></svg>