<?xml version="1.0" standalone="no"?><!DOCTYPE svg PUBLIC "-//W3C//DTD SVG 1.1//EN" "http://www.w3.org/Graphics/SVG/1.1/DTD/svg11.dtd"><svg t="1597128137978" class="icon" viewBox="0 0 1035 1024" version="1.1" xmlns="http://www.w3.org/2000/svg" p-id="14908" xmlns:xlink="http://www.w3.org/1999/xlink" width="202.1484375" height="200"><defs><style type="text/css"></style></defs><path d="M264.038005 677.329016a224.158615 224.158615 0 0 1-96.637269 21.97308 226.095788 226.095788 0 0 1-47.239353-5.258042L221.364847 1018.271502h152.676923L322.817375 693.656619A170.581938 170.581938 0 0 1 264.010331 677.329016" fill="#6ADDD6" p-id="14909"></path><path d="M526.967758 637.312553A380.101058 380.101058 0 0 1 471.204843 633.050772 171.578199 171.578199 0 0 1 339.255674 694.486836c-5.534781 0-10.931192 0-16.465973-0.830217L373.986422 1018.271502h156.080813V637.201857l-3.099477 0.13837z m205.174317 84.267034L685.456201 1018.271502h152.815293L931.477199 719.476371a260.660493 260.660493 0 0 1-198.643276 2.103216h-0.719522z" fill="#00C4B8" p-id="14910"></path><path d="M613.780792 626.630426c-27.50786 6.835454-55.762915 10.35004-84.128665 10.516083v381.097319h156.080813l46.685874-296.664241a259.581211 259.581211 0 0 1-118.610348-94.921487" fill="#6ADDD6" p-id="14911"></path><path d="M262.903375 676.443452a171.218438 171.218438 0 0 0 58.751696 16.465972l-24.712795-160.619333H69.933249l49.646982 161.172811c15.497386 3.486912 31.27151 5.258042 47.128657 5.258042a225.320919 225.320919 0 0 0 96.194487-22.277492" fill="#00C4B8" p-id="14912"></path><path d="M338.09337 693.905684a171.550525 171.550525 0 0 0 132.087539-61.159325 365.848998 365.848998 0 0 0 55.790589 4.53852h2.684368v-103.998528l-232.128699-0.857891 24.685122 160.619333c5.617802 0.581152 11.235605 0.857891 16.881081 0.857891z m423.133977-160.065855l-30.385945 188.431606a259.636558 259.636558 0 0 0 198.643276-1.411369l58.751696-186.300715-227.009027-0.719522z" fill="#00B2A7" p-id="14913"></path><path d="M612.950575 626.934839a259.498189 259.498189 0 0 0 117.918501 95.36427l30.358271-188.45928H529.098649v104.026202a352.842264 352.842264 0 0 0 83.851926-10.931192" fill="#00C4B8" p-id="14914"></path><path d="M862.679876 290.807613c3.376216-12.453256 5.091998-25.293947 5.119672-38.189987a151.265554 151.265554 0 0 0-229.748743-129.375496A266.139926 266.139926 0 0 0 147.420178 266.675969c0 18.486167 1.881825 36.944661 5.67315 55.071067a154.64177 154.64177 0 1 0 113.490676 273.279793 103.057615 103.057615 0 0 0 171.550525-40.874355 272.864684 272.864684 0 0 0 89.552751 14.196712 245.578216 245.578216 0 0 0 120.021717-28.393424 191.835496 191.835496 0 1 0 215.662727-249.452562l-0.691848 0.276739z" fill="#FF6B5B" p-id="14915"></path><path d="M862.679876 290.807613c3.376216-12.453256 5.091998-25.293947 5.119672-38.162313a151.403924 151.403924 0 0 0-151.403924-151.403923 157.796595 157.796595 0 0 0-26.262533 2.545999A151.403924 151.403924 0 0 1 814.13985 252.6453a148.276773 148.276773 0 0 1-5.091998 38.162313 191.807822 191.807822 0 0 1-7.112193 378.828058 191.835496 191.835496 0 0 0 60.744217-378.828058M69.933249 475.696959a154.614096 154.614096 0 0 1 140.472732-153.949923 270.872163 270.872163 0 0 1-5.81152-55.071067A266.610382 266.610382 0 0 1 442.119571 1.781369C296.112059-14.131125 164.882411 91.334119 148.969916 237.286284a267.357577 267.357577 0 0 0-1.549738 29.389685c0 18.486167 1.881825 36.944661 5.67315 55.071067a154.64177 154.64177 0 1 0 14.196712 308.730063 160.093529 160.093529 0 0 0 28.365751-2.684369 154.973857 154.973857 0 0 1-125.722542-152.095771" fill="#DC4E45" p-id="14916"></path><path d="M892.041887 450.569055a28.365751 28.365751 0 0 1-11.595365 38.439051l-1.162304 0.553478-56.759175 28.421099a28.393425 28.393425 0 0 1-39.020204-12.646974 28.365751 28.365751 0 0 1 11.595366-38.411377l1.162304-0.608826 56.205697-28.50412a28.338077 28.338077 0 0 1 38.411377 11.595365l0.581152 1.162304h0.581152zM201.910093 480.761283a28.448772 28.448772 0 0 1-37.359769 14.722517l-1.106956-0.553479-58.613327-26.926707a28.393425 28.393425 0 0 1-14.694843-37.359769l0.525805-1.106956a29.195968 29.195968 0 0 1 38.57742-14.169039l58.613327 26.954382c14.362756 6.254302 20.949145 22.96934 14.694843 37.332095l-0.525804 1.106956h-0.110696z m223.162354-83.021709a29.223642 29.223642 0 0 1-8.219149 40.320877l-53.770394 35.339574a28.393425 28.393425 0 0 1-40.293203-8.246823 28.365751 28.365751 0 0 1 7.305911-39.462986l1.051608-0.691848 53.770394-35.477943a28.393425 28.393425 0 0 1 39.490659 7.195215c0.221391 0.359761 0.470456 0.691848 0.664174 1.051608zM755.415828 272.930271c-7.416606 13.809278-24.629774 18.984297-38.439052 11.595366l-1.162303-0.664174-56.039654-31.824989a28.365751 28.365751 0 0 1-10.931192-39.407638 28.365751 28.365751 0 0 1 38.466725-11.484669l0.996261 0.553478 56.731501 31.631271c13.864625 7.997758 18.735232 25.626034 10.931192 39.573681h-0.553478z m-88.252077 99.460008c3.127151 15.691103-6.918476 30.994771-22.581905 34.31564l-63.124173 13.089756a29.251316 29.251316 0 0 1-34.343313-22.581905 28.393425 28.393425 0 0 1 21.225883-34.066575l1.328348-0.276739 63.151846-13.034408a28.338077 28.338077 0 0 1 34.038901 21.19821l0.304413 1.356021z m-203.901318-174.511633a29.057598 29.057598 0 0 1-28.393424 29.057598h-64.839955a29.057598 29.057598 0 0 1-28.365751-29.057598c0-15.691103 12.702321-28.393425 28.365751-28.393424h64.424846c15.663429 0 28.365751 12.702321 28.365751 28.393424h0.442782z" fill="#FFFFFF" p-id="14917"></path></svg>