<?xml version="1.0" standalone="no"?><!DOCTYPE svg PUBLIC "-//W3C//DTD SVG 1.1//EN" "http://www.w3.org/Graphics/SVG/1.1/DTD/svg11.dtd"><svg t="1597125126878" class="icon" viewBox="0 0 1024 1024" version="1.1" xmlns="http://www.w3.org/2000/svg" p-id="2366" xmlns:xlink="http://www.w3.org/1999/xlink" width="200" height="200"><defs><style type="text/css"></style></defs><path d="M136.797184 933.42208 136.797184 289.559552l92.909568 0 0 643.861504L136.797184 933.421056zM225.989632 256.446464c-12.42624-53.92384-33.447936-107.904-63.177728-161.885184l85.476352 0c34.666496 56.454144 59.462656 110.37696 74.32704 161.885184L225.989632 256.446464zM311.467008 609.651712 311.467008 330.031104l178.38592 0 0-91.978752 81.76128 0 0 91.978752 174.669824 0 0 176.60416c2.438144 71.169024-32.228352 105.488384-104.05888 103.015424l-70.60992 0 0 114.056192c24.736768 0 58.18368-3.679232 100.34176-11.036672 7.432192-2.415616 12.368896-3.679232 14.865408-3.679232-7.433216-22.07744-14.865408-45.360128-22.2976-69.906432l63.177728 0c27.234304 58.865664 44.596224 116.525056 52.02944 172.921856l-70.610944 0-7.432192-51.508224c-59.462656 17.188864-122.640384 25.755648-189.536256 25.755648L281.736192 786.253824l0-58.86976 208.116736 0L489.852928 609.651712 311.467008 609.651712zM720.268288 918.706176l0-62.547968 63.177728 0c32.169984 0 48.313344-14.715904 48.313344-44.14976L831.75936 197.5808 363.496448 197.5808l0-66.2272 561.171456 0 0 676.975616c2.439168 76.000256-37.164032 112.792576-118.923264 110.37696L720.268288 918.706176zM385.795072 550.786048l104.057856 0L489.852928 388.900864 385.795072 388.900864 385.795072 550.786048zM671.954944 388.900864l-100.34176 0 0 161.885184 52.028416 0c34.666496 2.468864 50.751488-15.925248 48.313344-55.190528L671.954944 388.900864z" p-id="2367"></path></svg>