<?xml version="1.0" standalone="no"?><!DOCTYPE svg PUBLIC "-//W3C//DTD SVG 1.1//EN" "http://www.w3.org/Graphics/SVG/1.1/DTD/svg11.dtd"><svg t="1597194983734" class="icon" viewBox="0 0 1024 1024" version="1.1" xmlns="http://www.w3.org/2000/svg" p-id="27118" xmlns:xlink="http://www.w3.org/1999/xlink" width="200" height="200"><defs><style type="text/css"></style></defs><path d="M332.581166 785.581935l0-10.264784C332.275197 778.729877 332.275197 782.168186 332.581166 785.581935M645.373125 601.706091 377.267924 266.556938l0 0.010233-44.686758 0 0 402.156266 44.686758 0L377.267924 333.582471l268.105201 335.140966 44.682665 0L690.05579 266.567171l-44.682665 0L645.373125 601.706091zM868.795661 65.482387 153.846412 65.482387c-49.355081 0-89.369424 40.015366-89.369424 89.369424l0 625.579825c0 49.354058 40.015366 89.370447 89.369424 89.370447l244.233514 0 72.492034 72.40403c22.36231 22.334681 58.612932 22.334681 80.97115 0l72.492034-72.40403 244.759493 0c49.355081 0 89.364307-40.015366 89.364307-89.370447L958.158944 154.85181C958.165084 105.497753 918.150742 65.482387 868.795661 65.482387M913.478326 780.431635c0 24.677029-20.005636 44.686758-44.682665 44.686758L690.05579 825.118394l-21.278629 0-50.551326 0-76.736709 76.645634c-16.770965 16.751522-43.958164 16.751522-60.72913 0l-76.736709-76.645634-50.677193 0-20.763906 0L153.846412 825.118394c-24.683169 0-44.686758-20.009729-44.686758-44.686758L109.159654 154.85181c0-24.677029 20.00359-44.681642 44.686758-44.681642l714.949248 0c24.677029 0 44.682665 20.004613 44.682665 44.681642L913.478326 780.431635z" p-id="27119"></path></svg>