<?xml version="1.0" standalone="no"?><!DOCTYPE svg PUBLIC "-//W3C//DTD SVG 1.1//EN" "http://www.w3.org/Graphics/SVG/1.1/DTD/svg11.dtd"><svg t="1597627032541" class="icon" viewBox="0 0 1024 1024" version="1.1" xmlns="http://www.w3.org/2000/svg" p-id="1644" xmlns:xlink="http://www.w3.org/1999/xlink" width="200" height="200"><defs><style type="text/css"></style></defs><path d="M393.34765625 314.24609375c0-65.25878906 53.39355469-118.65234375 118.65234375-118.65234376s118.65234375 53.39355469 118.65234375 118.65234376v79.1015625h79.1015625v-79.1015625c0-108.76464844-88.98925781-197.75390625-197.75390625-197.75390625S314.24609375 205.48144531 314.24609375 314.24609375v79.1015625h79.1015625v-79.1015625zM788.85546875 432.8984375H235.14453125c-21.75292969 0-39.55078125 17.79785156-39.55078126 39.55078125v395.5078125c0 21.75292969 17.79785156 39.55078125 39.55078126 39.55078125h553.7109375c21.75292969 0 39.55078125-17.79785156 39.55078126-39.55078125V472.44921875c0-21.75292969-17.79785156-39.55078125-39.55078126-39.55078125zM551.55078125 729.52929689c0 21.75292969-17.79785156 39.55078125-39.55078125 39.55078123s-39.55078125-17.79785156-39.55078125-39.55078125v-118.65234374c0-21.75292969 17.79785156-39.55078125 39.55078125-39.55078125s39.55078125 17.79785156 39.55078125 39.55078125v118.65234376z" p-id="1645"></path></svg>