<?xml version="1.0" standalone="no"?><!DOCTYPE svg PUBLIC "-//W3C//DTD SVG 1.1//EN" "http://www.w3.org/Graphics/SVG/1.1/DTD/svg11.dtd"><svg t="1597194939201" class="icon" viewBox="0 0 1024 1024" version="1.1" xmlns="http://www.w3.org/2000/svg" p-id="24206" xmlns:xlink="http://www.w3.org/1999/xlink" width="200" height="200"><defs><style type="text/css"></style></defs><path d="M797.664623 924.426167 223.311507 924.426167c-88.075964 0-159.730934-71.653947-159.730934-159.730934L63.580572 368.391255c0-88.075964 71.65497-159.730934 159.730934-159.730934l70.501704 0 0-13.044084c0-48.52518 39.479153-88.004333 88.004333-88.004333l258.876002 0c48.526203 0 88.004333 39.479153 88.004333 88.004333l0 13.044084 68.966745 0c88.075964 0 159.731958 71.65497 159.731958 159.730934l0 396.305001C957.396581 852.77222 885.740588 924.426167 797.664623 924.426167zM223.311507 247.545956c-66.63463 0-120.845299 54.210669-120.845299 120.845299l0 396.305001c0 66.633606 54.210669 120.845299 120.845299 120.845299l574.353117 0c66.63463 0 120.846322-54.211692 120.846322-120.845299L918.510946 368.391255c0-66.63463-54.211692-120.845299-120.846322-120.845299l-88.409562 0c-10.737552 0-19.442818-8.705266-19.442818-19.442818l0-32.486902c0-27.083845-22.034852-49.118698-49.118698-49.118698l-258.876002 0c-27.083845 0-49.118698 22.034852-49.118698 49.118698l0 32.486902c0 10.737552-8.705266 19.442818-19.442818 19.442818L223.311507 247.545956z" p-id="24207"></path><path d="M510.488065 808.052716c-117.034507 0-212.249055-95.214549-212.249055-212.248032 0-117.03553 95.214549-212.250078 212.249055-212.250078s212.249055 95.214549 212.249055 212.250078C722.73712 712.838168 627.522572 808.052716 510.488065 808.052716zM510.488065 422.440242c-95.593172 0-173.36342 77.771271-173.36342 173.364443 0 95.592149 77.770248 173.362396 173.36342 173.362396s173.36342-77.770248 173.36342-173.362396C683.851485 500.210489 606.081237 422.440242 510.488065 422.440242z" p-id="24208"></path><path d="M510.488065 808.052716c-117.034507 0-212.249055-95.214549-212.249055-212.248032 0-117.03553 95.214549-212.250078 212.249055-212.250078s212.249055 95.214549 212.249055 212.250078C722.73712 712.838168 627.522572 808.052716 510.488065 808.052716zM510.488065 422.440242c-95.593172 0-173.36342 77.771271-173.36342 173.364443 0 95.592149 77.770248 173.362396 173.36342 173.362396s173.36342-77.770248 173.36342-173.362396C683.851485 500.210489 606.081237 422.440242 510.488065 422.440242z" p-id="24209"></path><path d="M222.034421 433.861362c-32.147164 0-58.299801-26.15366-58.299801-58.299801s26.15366-58.299801 58.299801-58.299801 58.299801 26.15366 58.299801 58.299801S254.180562 433.861362 222.034421 433.861362zM222.034421 356.147396c-10.704806 0-19.414165 8.709359-19.414165 19.414165s8.709359 19.414165 19.414165 19.414165 19.414165-8.709359 19.414165-19.414165S232.739227 356.147396 222.034421 356.147396z" p-id="24210"></path><path d="M222.034421 433.861362c-32.147164 0-58.299801-26.15366-58.299801-58.299801s26.15366-58.299801 58.299801-58.299801 58.299801 26.15366 58.299801 58.299801S254.180562 433.861362 222.034421 433.861362zM222.034421 356.147396c-10.704806 0-19.414165 8.709359-19.414165 19.414165s8.709359 19.414165 19.414165 19.414165 19.414165-8.709359 19.414165-19.414165S232.739227 356.147396 222.034421 356.147396z" p-id="24211"></path></svg>