<?xml version="1.0" standalone="no"?><!DOCTYPE svg PUBLIC "-//W3C//DTD SVG 1.1//EN" "http://www.w3.org/Graphics/SVG/1.1/DTD/svg11.dtd"><svg t="1597123551472" class="icon" viewBox="0 0 1024 1024" version="1.1" xmlns="http://www.w3.org/2000/svg" p-id="18109" xmlns:xlink="http://www.w3.org/1999/xlink" width="200" height="200"><defs><style type="text/css"></style></defs><path d="M388.953 87.703l79.102 79.102 208.74 206.543V103.085C626.258 81.112 569.129 70.126 512 70.126c-43.945 0-83.497 6.592-123.047 17.578zM632.849 894.1l-76.904-76.904-208.74-206.543V878.72c50.537 21.973 105.469 35.156 164.795 35.156 41.748 0 83.497-6.592 120.849-19.776zM140.662 292.049h402.099L353.796 100.887c-50.537 19.776-98.877 50.537-140.625 92.286-30.762 30.762-54.932 63.721-72.51 98.877z m742.676 397.706H773.474l-294.434 2.197 191.162 191.162c50.537-21.973 98.877-52.734 138.428-94.482 30.762-28.565 54.932-63.721 74.707-98.877zM107.703 612.85l79.102-76.904 206.543-208.74H123.085c-21.973 50.537-32.959 105.469-32.959 164.795 0 41.748 6.592 83.497 17.578 120.849z m806.396-243.897l-76.904 79.102-206.543 208.74h268.067c21.973-50.537 35.156-107.666 35.156-164.795 0-43.945-6.592-83.497-19.776-123.047z m-602.05 494.385V459.041L120.887 650.203c19.776 50.537 50.537 98.877 92.286 138.427 30.762 30.762 63.721 54.932 98.877 74.707z m397.705-742.676v109.864l2.197 292.237 191.162-188.965c-21.973-50.537-52.734-98.877-94.482-140.625-28.565-30.762-63.721-54.932-98.877-72.51z" p-id="18110"></path></svg>