<?xml version="1.0" standalone="no"?><!DOCTYPE svg PUBLIC "-//W3C//DTD SVG 1.1//EN" "http://www.w3.org/Graphics/SVG/1.1/DTD/svg11.dtd"><svg t="1597125100632" class="icon" viewBox="0 0 1024 1024" version="1.1" xmlns="http://www.w3.org/2000/svg" p-id="1933" xmlns:xlink="http://www.w3.org/1999/xlink" width="200" height="200"><defs><style type="text/css"></style></defs><path d="M650.795008 317.778944l0-79.205376L403.504128 238.573568l0 79.205376-94.552064 0 0-79.205376L105.299968 238.573568l0-64.805888 203.652096 0L308.952064 98.16064l94.552064 0 0 75.606016 247.29088 0L650.795008 94.56128l94.552064 0 0 79.205376 200.014848 0 0 64.805888L745.347072 238.572544l0 79.205376L650.795008 317.77792zM119.845888 757.010432c41.196544-72.005632 71.482368-151.212032 90.91584-237.617152l80.006144 0c-19.433472 93.605888-47.277056 172.811264-83.643392 237.617152L119.845888 757.010432zM130.756608 933.42208l0-57.602048c186.660864-86.40512 278.770688-223.217664 276.383744-410.432512L156.212224 465.38752l0-64.802816 250.928128 0 0-100.808704 101.825536 0 0 100.808704 272.74752 0 0 381.62944c2.386944 86.406144-41.252864 128.36864-130.9184 126.00832L534.422528 908.222464l0-64.805888 87.279616 0c43.638784 2.363392 64.208896-17.999872 61.821952-61.202432L683.524096 465.386496 508.965888 465.386496C511.352832 695.804928 385.32096 851.800064 130.756608 933.42208zM872.629248 757.010432c-14.546944-74.370048-41.252864-153.575424-80.00512-237.617152l76.368896 0c41.196544 74.422272 70.289408 153.627648 87.279616 237.617152L872.629248 757.010432z" p-id="1934"></path></svg>