<?xml version="1.0" standalone="no"?><!DOCTYPE svg PUBLIC "-//W3C//DTD SVG 1.1//EN" "http://www.w3.org/Graphics/SVG/1.1/DTD/svg11.dtd"><svg t="1597044727832" class="icon" viewBox="0 0 1087 1024" version="1.1" xmlns="http://www.w3.org/2000/svg" p-id="21028" xmlns:xlink="http://www.w3.org/1999/xlink" width="212.3046875" height="200"><defs><style type="text/css"></style></defs><path d="M855.433846 286.72c-61.44-6.301538-118.153846 4.726154-159.113846 28.356923 18.904615 25.206154 31.507692 63.015385 31.507692 107.126154 0 36.233846-7.876923 67.741538-22.055384 91.372308 34.658462 20.48 78.769231 34.658462 127.606154 39.384615 118.153846 11.027692 218.978462-39.384615 223.704615-113.427692s-83.495385-141.784615-201.649231-152.812308z" fill="#FFB89A" p-id="21029"></path><path d="M633.304615 861.735385H439.532308c-42.535385 0-78.769231 34.658462-78.769231 78.76923 0 42.535385 34.658462 78.769231 78.769231 78.769231h193.772307c42.535385 0 78.769231-34.658462 78.769231-78.769231-1.575385-44.110769-36.233846-78.769231-78.769231-78.76923z m0 99.24923H439.532308c-3.150769 0-4.726154-11.027692-4.726154-23.630769s3.150769-23.630769 4.726154-23.630769h193.772307c3.150769 0 4.726154 11.027692 4.726154 23.630769s-3.150769 23.630769-4.726154 23.630769z" fill="#706F7C" p-id="21030"></path><path d="M518.301538 341.858462c-11.027692-15.753846-34.658462-20.48-50.412307-7.876924-15.753846 11.027692-20.48 34.658462-7.876923 50.412308 12.603077 18.904615 20.48 40.96 20.48 63.015385 0 20.48 15.753846 36.233846 36.233846 36.233846s36.233846-15.753846 36.233846-36.233846c0-37.809231-12.603077-75.618462-34.658462-105.550769z m-80.344615-63.015385c-22.055385-7.876923-44.110769-12.603077-67.741538-12.603077C270.966154 266.24 189.046154 346.584615 189.046154 447.409231c0 20.48 15.753846 36.233846 36.233846 36.233846s36.233846-15.753846 36.233846-36.233846c0-59.864615 48.836923-108.701538 108.701539-108.701539 14.178462 0 26.781538 3.150769 40.96 7.876923 18.904615 7.876923 39.384615-1.575385 47.261538-20.48s-1.575385-39.384615-20.48-47.261538z" fill="#33CC99" p-id="21031"></path><path d="M1001.944615 356.036923c-14.178462-23.630769-33.083077-44.110769-58.28923-63.015385l66.166153-70.892307c14.178462-14.178462 12.603077-37.809231-1.575384-51.987693-15.753846-12.603077-39.384615-11.027692-51.987692 3.15077l-78.769231 85.070769c-6.301538-1.575385-12.603077-4.726154-18.904616-6.301539l100.824616-193.772307c9.452308-17.329231 1.575385-39.384615-15.753846-48.836923-17.329231-9.452308-39.384615-1.575385-48.836923 15.753846l-111.852308 214.252308h-20.48c-26.781538 0-53.563077 3.150769-78.769231 9.452307-18.904615 4.726154-31.507692 23.630769-26.781538 44.110769 4.726154 18.904615 23.630769 31.507692 44.110769 26.781539 20.48-4.726154 40.96-6.301538 61.44-6.301539 53.563077 0 102.4 14.178462 138.633846 40.96 33.083077 23.630769 50.412308 53.563077 50.412308 85.07077 0 20.48 15.753846 36.233846 36.233846 36.233846 20.48 0 36.233846-15.753846 36.233846-36.233846 1.575385-29.932308-6.301538-56.713846-22.055385-83.495385z" fill="#706F7C" p-id="21032"></path><path d="M792.418462 949.956923c-11.027692 0-22.055385-6.301538-26.781539-17.329231-7.876923-14.178462-1.575385-33.083077 14.178462-39.384615 141.784615-70.892308 234.732308-200.073846 245.76-343.433846H63.015385c11.027692 138.633846 99.249231 266.24 236.307692 337.132307 14.178462 7.876923 20.48 25.206154 12.603077 40.96-7.876923 14.178462-25.206154 20.48-40.96 12.603077C103.975385 853.858462 1.575385 693.169231 1.575385 519.876923v-29.932308h1083.864615V519.876923c0 178.018462-107.126154 340.283077-280.418462 426.929231-4.726154 1.575385-9.452308 3.150769-12.603076 3.150769z" fill="#706F7C" p-id="21033"></path><path d="M630.153846 463.163077c-15.753846 0-29.932308-14.178462-29.932308-29.932308 0-127.606154-102.4-230.006154-230.006153-230.006154S140.209231 305.624615 140.209231 433.230769c0 15.753846-14.178462 29.932308-29.932308 29.932308s-29.932308-14.178462-29.932308-29.932308c0-159.113846 130.756923-289.870769 289.87077-289.870769s289.870769 130.756923 289.870769 289.870769c0 15.753846-14.178462 29.932308-29.932308 29.932308z" fill="#706F7C" p-id="21034"></path></svg>