<?xml version="1.0" standalone="no"?><!DOCTYPE svg PUBLIC "-//W3C//DTD SVG 1.1//EN" "http://www.w3.org/Graphics/SVG/1.1/DTD/svg11.dtd"><svg t="1596682601253" class="icon" viewBox="0 0 1024 1024" version="1.1" xmlns="http://www.w3.org/2000/svg" p-id="4626" xmlns:xlink="http://www.w3.org/1999/xlink" width="200" height="200"><defs><style type="text/css"></style></defs><path d="M513.706667 127.336296c51.863704 0 102.115556 10.145185 149.428148 30.151111 45.700741 19.342222 86.755556 47.028148 122.026666 82.29926 35.271111 35.271111 62.957037 76.325926 82.29926 122.026666 20.005926 47.312593 30.151111 97.564444 30.151111 149.428148S887.466667 613.451852 867.460741 660.764444c-19.342222 45.700741-47.028148 86.755556-82.29926 122.026667s-76.325926 62.957037-122.026666 82.299259c-47.312593 20.005926-97.564444 30.151111-149.428148 30.151111S411.496296 885.191111 364.183704 865.185185c-45.700741-19.342222-86.755556-47.028148-122.026667-82.299259S179.2 706.56 159.857778 660.859259c-20.005926-47.407407-30.151111-97.659259-30.151111-149.522963s10.145185-102.115556 30.151111-149.428148c19.342222-45.700741 47.028148-86.755556 82.299259-122.026667 35.271111-35.271111 76.325926-62.957037 122.026667-82.299259 47.312593-20.100741 97.659259-30.245926 149.522963-30.245926m0-42.666666c-235.614815 0-426.666667 191.051852-426.666667 426.666666s191.051852 426.666667 426.666667 426.666667 426.666667-191.051852 426.666666-426.666667-191.051852-426.666667-426.666666-426.666666z" p-id="4627"></path><path d="M513.706667 662.471111c-11.757037 0-21.333333-9.576296-21.333334-21.333333 0-35.271111 9.197037-64.948148 27.970371-90.737778 16.023704-21.997037 36.314074-37.641481 55.94074-52.717037 33.564444-25.884444 60.112593-46.364444 60.112593-91.780741 0-67.697778-55.087407-122.785185-122.785185-122.785185s-122.785185 55.087407-122.785185 122.785185c0 11.757037-9.576296 21.333333-21.333334 21.333334s-21.333333-9.576296-21.333333-21.333334c0-91.211852 74.24-165.451852 165.451852-165.451852s165.451852 74.24 165.451852 165.451852c0 66.465185-40.77037 97.848889-76.8 125.534815-36.124444 27.780741-67.318519 51.863704-67.318519 109.605926 0.094815 11.851852-9.481481 21.428148-21.238518 21.428148zM513.232593 718.411852c-11.757037 0-21.333333 9.576296-21.333334 21.333333s9.576296 21.333333 21.333334 21.333334 21.333333-9.576296 21.333333-21.333334-9.576296-21.333333-21.333333-21.333333z" p-id="4628"></path></svg>