<?xml version="1.0" standalone="no"?><!DOCTYPE svg PUBLIC "-//W3C//DTD SVG 1.1//EN" "http://www.w3.org/Graphics/SVG/1.1/DTD/svg11.dtd"><svg t="1597124993832" class="icon" viewBox="0 0 1024 1024" version="1.1" xmlns="http://www.w3.org/2000/svg" p-id="913" xmlns:xlink="http://www.w3.org/1999/xlink" width="200" height="200"><defs><style type="text/css"></style></defs><path d="M238.397415 629.614394c0-1.841726 3.888088-6.95763 11.613104-15.347714s11.561945-11.152672 11.561945-8.236607a84.156633 84.156633 0 0 1-7.673858 21.99839c-6.650676 11.715422-8.850515 17.649871-6.650676 17.649871a2.916066 2.916066 0 0 0 3.274179-3.325338c0-2.14868 2.199839-4.041565 6.650676-5.474018 2.14868-2.199839 3.427656-2.916066 3.836929-2.199839a3.939247 3.939247 0 0 1-0.56275 3.325338 85.537927 85.537927 0 0 1-13.147875 20.872892 98.27653 98.27653 0 0 1-18.77537 19.84971c-4.348519 5.115905-5.832131 8.799356-4.348519 10.999195 2.199839 3.73461 13.199034-7.315744 33.048745-32.997585 2.14868-2.916066 4.757791-6.241404 7.673857-9.924855a58.065519 58.065519 0 0 1 14.324533-16.524373 9.822537 9.822537 0 0 0 5.525177-8.748197 5.934449 5.934449 0 0 1 4.348519-6.650676 1.330135 1.330135 0 0 1 2.14868 0 8.441243 8.441243 0 0 1 1.125499 5.474018 31.411655 31.411655 0 0 1-8.799356 14.887283c-5.88329 6.95763-9.515583 9.720219-10.999195 8.236606h-2.762589c-0.409272 0 0 0.767386 0.56275 2.199839 2.199839 1.483612 1.688249 5.115905-1.688249 10.999196a32.076723 32.076723 0 0 1-10.231809 12.124694c-3.73461 1.483612-5.525177 3.478815-5.525177 6.036767a31.411655 31.411655 0 0 1-7.725017 13.761784c-5.88329 9.515583-7.008789 14.273374-3.274179 14.273374s8.799356-4.757791 15.347715-14.273374 10.999195-13.557148 13.199034-12.124694 1.688249 3.120702-1.688249 5.115905-4.348519 3.888088-3.274179 6.036767-1.07434 6.95763-6.599517 14.273374a33.918448 33.918448 0 0 0-8.236607 16.012782c0 3.274179-1.278976 5.115905-3.888087 5.115905s-3.427656 1.688249-2.71143 5.115905a38.727399 38.727399 0 0 1-7.162266 19.798551 40.927238 40.927238 0 0 0-6.650676 25.579523 15.961623 15.961623 0 0 1-5.115905 15.910464 41.694623 41.694623 0 0 0-7.213426 12.687444 42.462009 42.462009 0 0 0-3.836928 15.961622 216.91436 216.91436 0 0 1-17.649872 35.248584q-29.723406 58.270155-40.927237 58.270155a122.781713 122.781713 0 0 1-28.137476-10.999195 110.657019 110.657019 0 0 0-29.109498-10.999196c-3.73461 0-5.525177-2.199839-5.525177-6.650676s-4.553155-8.645879-13.761784-12.636284a63.181423 63.181423 0 0 1-22.612299-15.961623 16.933645 16.933645 0 0 1-5.115904-18.673052 18.77537 18.77537 0 0 0 1.688248-14.273374c-1.534771-3.632292-1.125499-5.474018 1.07434-5.474018s2.967225-2.199839 2.199839-6.650677a3.529974 3.529974 0 0 1 3.274179-3.836928 43.075918 43.075918 0 0 1 14.273374 2.813747 18.366098 18.366098 0 0 0 15.347714-6.650676 647.161947 647.161947 0 0 0 58.321314-61.390856c5.115905-6.650676 9.157469-9.924855 12.124694-9.924855a3.836929 3.836929 0 0 0 4.348519-4.399679 7.162267 7.162267 0 0 1 4.399679-6.599517c2.967225-1.483612 4.041565-2.916066 3.325338-4.348519a243.21011 243.21011 0 0 1 35.197424-45.122279 50.545139 50.545139 0 0 0 9.924855-14.324533q0-2.199839 10.23181-12.124695c7.929652-7.725016 11.408468-11.971217 11.408467-13.761783zM83.180866 370.442661c0-0.665068 4.041565 0 12.124694 1.739407a231.852802 231.852802 0 0 0 37.448423 3.836929 194.404379 194.404379 0 0 1 53.358886 10.231809c18.77537 6.241404 32.127882 10.589923 40.211011 13.147875s12.789762 5.525177 14.273374 8.850516a27.421249 27.421249 0 0 0 12.124694 10.231809 15.808146 15.808146 0 0 1 10.999196 23.07273 37.03915 37.03915 0 0 0-2.19984 24.249389 194.404379 194.404379 0 0 1 3.27418 41.183033c0 18.059144-0.869704 27.523567-2.71143 28.597907s-3.836929 0.613909-6.036768-1.63709a5.729813 5.729813 0 0 0-7.776175-0.562749 9.157469 9.157469 0 0 0-4.348519 8.236607c0 3.018384-0.920863 4.450837-2.762588 4.450837s-3.478815 2.199839-5.115905 6.650676-3.274179 5.88329-5.474018 4.399678-3.836929-0.767386-5.115905 2.199839-5.115905 2.353316-12.636284-1.63709a53.410045 53.410045 0 0 1-17.649872-14.887282c-4.399678-5.832131-7.725016-8.799356-9.924855-8.799357a27.881681 27.881681 0 0 1-12.124694-7.111107c-5.88329-4.80895-8.441243-7.929652-7.725016-9.413265 1.483612-2.864907 0-8.59472-4.348519-16.984803a47.168642 47.168642 0 0 1-6.650676-18.212621 106.410818 106.410818 0 0 0-12.124694-29.109498 60.981584 60.981584 0 0 0-24.19823-29.160657 138.794495 138.794495 0 0 1-18.724211-14.324533c-6.650676-5.832131-9.924855-10.231809-9.924855-13.199034a9.566742 9.566742 0 0 0-3.325338-6.599517c-3.274179-2.557952-4.399678-9.10631-2.916066-19.440438z m102.318094-256.306827a187.90718 187.90718 0 0 1 62.720992 6.548358 127.897618 127.897618 0 0 1 44.610689 14.324534 25.579524 25.579524 0 0 1 10.23181 22.049549 31.565132 31.565132 0 0 0 4.399678 17.598712 121.758532 121.758532 0 0 1 8.236606 42.308532q1.688249 28.137476-5.115904 32.537154c-3.018384 1.432453-2.609111 10.231809 1.07434 26.346909 1.432453 3.683451 0 5.88329-4.399678 6.599517s-6.036768 3.529974-5.115905 8.236607a12.175853 12.175853 0 0 1-3.325338 12.124694c-3.274179 3.274179-9.003992 2.353316-17.035963-2.762588a221.72331 221.72331 0 0 1-20.975209-14.887283 25.579524 25.579524 0 0 0-14.887283-7.111108 10.231809 10.231809 0 0 1-8.236606-2.762588 4.655473 4.655473 0 0 0-5.474019-1.688249 5.115905 5.115905 0 0 1-6.599517-2.762588 219.165358 219.165358 0 0 1-8.850515-20.463619c-1.483612-5.832131-5.115905-18.724211-10.231809-38.471604a251.80483 251.80483 0 0 1-8.287766-34.123084c0-3.683451-0.920863-5.474018-2.762588-5.474018s-5.474018-4.041565-11.050355-12.073535a68.19501 68.19501 0 0 1-10.231809-21.998391c-0.665068-2.199839-1.278976-4.041565-1.63709-5.525177a9.924855 9.924855 0 0 1 0.56275-5.576336c1.483612 0 1.790567-1.790567 1.07434-5.474018s-0.51159-4.757791 0.562749-5.525177a34.071925 34.071925 0 0 1 10.845718-1.995203z m30.234997 562.237929c1.125499 1.483612 3.529974 0.56275 7.213426-2.762589s4.553155-5.525177 2.711429-6.599517-4.246201 0-7.111107 2.813748-3.785769 5.115905-2.71143 6.548358z m15.961623 41.285351c0.716227 1.07434 2.609111 0 5.525177-3.836929s3.274179-5.576336 1.07434-5.576336a6.497199 6.497199 0 0 0-5.474018 3.836929c-1.381294 2.609111-1.688249 4.450837-1.023181 5.576336z m3.325338 39.085512q3.325338-3.325338 4.399678-2.199839c0.665068 0.665068 0.665068 2.199839 0 4.348519-2.199839 3.683451-3.73461 4.757791-4.399678 3.325338a7.059949 7.059949 0 0 1 0.102318-5.525177zM450.75862 5.167064c-0.665068-1.432453 0.409272-2.916066 3.325338-4.348519a47.219801 47.219801 0 0 1 35.248584 7.673857 305.624148 305.624148 0 0 0 32.485995 22.049549 95.002351 95.002351 0 0 1 26.909658 20.463619 120.837669 120.837669 0 0 0 7.776176 13.761784l7.725016 7.673857-7.725016 8.850515a52.438023 52.438023 0 0 0-11.561945 27.472408q-2.813748 17.649871-5.115905 75.920026-2.302157 69.371668 6.599517 73.720187a55.405248 55.405248 0 0 0 8.236607-1.07434 30.183838 30.183838 0 0 0 10.231809-3.836928c2.916066-1.841726 4.041565-3.529974 3.325338-5.115905-2.199839-2.199839-2.046362-2.967225 0.511591-2.199839s7.162267 1.841726 13.812943 3.325338a23.482003 23.482003 0 0 1 15.347714 9.310947 17.035963 17.035963 0 0 0 13.199034 7.673857 33.458017 33.458017 0 0 1 18.161462 9.924855 22.56114 22.56114 0 0 0 14.887282 8.236607c2.916066 0 4.348519 0 4.348519 0.51159s-1.07434 1.688249-3.274179 3.888088c-5.88329 4.399678-7.725016 8.03197-5.474018 10.999195h4.399678q85.844881-35.197424 124.981553-47.884868a346.807181 346.807181 0 0 1 73.208596-15.961623 83.031134 83.031134 0 0 1 36.885673 1.688248 128.665004 128.665004 0 0 0 19.84971 10.999196 65.074308 65.074308 0 0 0 18.724212 7.111107 8.03197 8.03197 0 0 1 6.650676 4.399678 49.880071 49.880071 0 0 0 17.035963 12.073535c20.463619 9.617901 30.695428 18.366098 30.695428 26.398069 0 5.115905-1.07434 7.776175-3.274179 7.776175-3.018384 0-5.88329 9.924855-8.850515 29.723406a325.166904 325.166904 0 0 0-3.274179 59.395654 43.894462 43.894462 0 0 1-5.525177 21.99839 50.391661 50.391661 0 0 0-3.274179 15.347714 132.60425 132.60425 0 0 0-0.56275 20.463619c0.409272 6.241404 1.330135 9.310947 2.762589 9.310947s2.199839 3.836929 2.199839 11.561945-0.920863 11.510786-2.762589 11.510785-2.762589 1.483612-2.762588 4.399678 0.716227 4.450837 2.199839 4.450837 2.14868 1.841726 2.14868 5.422859 0 7.929652-0.511591 12.687444a32.127882 32.127882 0 0 1-1.688248 9.310947 9.362106 9.362106 0 0 0 0.51159 9.362105 52.233387 52.233387 0 0 1 2.762589 22.56114c0 12.431648 0 20.872891 0.613908 25.272569s0.306954 11.510786 0 21.435641a31.15586 31.15586 0 0 0 2.71143 18.724211c2.199839 2.557952 1.688249 5.474018-1.63709 8.799357s-2.967225 6.650676 1.125499 9.924855 5.115905 5.525177 3.274179 6.548358-2.813748 10.641082-2.813747 28.597907a155.370026 155.370026 0 0 1-2.71143 36.271765c-1.841726 6.292563-1.739408 9.362106 0.511591 9.362105s3.325338 2.609111 3.325338 7.725016-1.125499 7.725016-3.325338 7.725016-3.274179 1.688249-3.274179 5.115905 1.278976 5.115905 3.888087 5.115905 2.967225 5.115905 1.125499 14.887283a366.70805 366.70805 0 0 0-3.939246 50.596297l-1.07434 38.011172a416.946235 416.946235 0 0 0-2.19984 34.071926c-0.716227 6.650676-1.432453 10.231809-2.148679 10.231809s-2.609111-0.51159-5.525178-2.762588-4.80895-4.348519-5.474018-4.348519-1.892885 2.199839-3.325338 6.599517a29.569929 29.569929 0 0 1-8.850515 12.073535c-3.683451 2.967225-6.599517 2.609111-8.748197-1.07434s-4.092724-5.474018-5.525177-5.474018a14.938442 14.938442 0 0 1-10.999195-6.599517c-3.683451-4.399678-4.80895-7.725016-3.325338-9.924855 1.534771-3.683451 1.125499-5.576336-1.07434-5.576337s-3.274179-1.63709-3.274179-5.115904-2.762589-6.752994-8.236607-10.23181a15.347714 15.347714 0 0 1-8.236606-12.687443c0-4.757791-1.125499-7.111108-3.325339-7.111108s-2.557952-2.199839-1.07434-6.650676 1.07434-7.162267-1.125499-8.236607-2.71143-3.120702-1.637089-6.036767 0.358113-4.399678-2.199839-4.399678-3.888088-6.650676-3.888088-19.798552a155.72814 155.72814 0 0 0-1.637089-28.086316c-1.125499-4.757791-3.888088-6.394881-8.236607-5.115905l-50.647456 9.873696a383.692854 383.692854 0 0 0-116.693787 33.048744 61.390857 61.390857 0 0 1-15.347714 8.799356 8.03197 8.03197 0 0 1-8.236607-3.325338 24.760979 24.760979 0 0 0-12.636285-6.548358 27.93284 27.93284 0 0 1-7.776175-3.274179c-0.665068-0.716227-0.665068-2.609111 0-5.525177q1.125499-7.725016-2.199839-10.231809a10.231809 10.231809 0 0 1-3.22302-8.236607c0-3.632292-3.120702-5.474018-9.362105-5.474018a22.56114 22.56114 0 0 1-14.273374-3.888087q-5.115905-3.836929-8.236607-2.14868c-2.199839 1.07434-3.325338 1.278976-3.325338 0.51159a20.975209 20.975209 0 0 1 5.474018-8.748197c4.348519-4.450837 5.115905-7.366903 2.14868-8.850515s-3.22302-3.325338-1.07434-5.474018a352.997426 352.997426 0 0 0 8.850515-72.594688c0.665068-19.798551 2.199839-30.234997 4.399678-31.360496s2.71143-4.757791 1.63709-10.999195a38.573922 38.573922 0 0 1 1.688248-19.286961 449.739184 449.739184 0 0 0 5.115905-73.720187l1.739408-66.04633a346.960658 346.960658 0 0 0-6.650677-42.359691q-6.650676-34.685834-8.850515-42.308532a31.565132 31.565132 0 0 0-15.347714-15.347714 16.370895 16.370895 0 0 1-9.413265-5.115905 27.216613 27.216613 0 0 1-1.637089-11.613104 19.33812 19.33812 0 0 1 1.637089-10.231809 47.936027 47.936027 0 0 1 13.864102-5.115905 138.743336 138.743336 0 0 1 47.27096 8.799356 109.838474 109.838474 0 0 1 42.973599 21.998391 40.569124 40.569124 0 0 1 12.124695 17.087121 333.505829 333.505829 0 0 1 8.799356 40.159852l1.125499 13.199035 24.198229-10.999195a520.185192 520.185192 0 0 1 54.484385-20.924051 171.536285 171.536285 0 0 1 39.085512-9.924855 7.827334 7.827334 0 0 1 7.725016 9.924855c0 3.632292 0.358113 5.832131 1.1255 6.599517s3.632292 1.07434 8.799356 1.07434h12.124694l-2.199839-16.524372a3748.167592 3748.167592 0 0 1-3.325338-51.670638c-2.199839-34.481198-5.474018-51.670638-9.873696-51.670637q-4.399678 0-82.621862 23.123889-93.518738 27.472408-85.844881 15.347714c0.716227-2.199839-1.07434-3.274179-5.474018-3.274179h-16.473213c-16.933645 2.199839-25.272569 2.199839-25.272569 0s-2.609111-3.478815-7.776175-3.836928a32.281359 32.281359 0 0 0-15.347715 2.711429 24.914456 24.914456 0 0 1-18.724211 3.325338c-5.88329-1.534771-8.850515 0-8.850515 4.399678s-1.995203 6.497199-6.036768 6.497199a7.52038 7.52038 0 0 0-7.725016 3.888088c-1.07434 2.609111-4.246201 4.246201-9.310946 5.115905a14.529169 14.529169 0 0 0-7.162267 2.199839 24.249388 24.249388 0 0 0-6.650676 5.525177c-1.790567 2.199839-1.995203 3.632292-0.511591 4.348519s4.399678 0.767386 10.999196-2.14868c5.832131-0.767386 8.850515-0.767386 8.850515 0a7.008789 7.008789 0 0 1-6.599517 4.348519 17.752189 17.752189 0 0 0-10.23181 5.115904c-4.041565 3.22302-6.44604 19.184643-7.111107 47.83371a219.983903 219.983903 0 0 1-8.850516 78.119865 156.035094 156.035094 0 0 0 0.56275 30.286156q1.63709 28.035158 7.162267 28.086316l2.199839-1.125499c-0.716227-0.716227 3.274179-5.832131 12.073535-15.347714a93.876852 93.876852 0 0 0 8.236606-15.347714c2.609111-5.832131 5.115905-8.799356 8.287766-8.799356 0.716227 0 0 2.404475-2.199839 7.162267s-5.115905 10.231809-8.287766 17.087121-6.701835 12.789762-10.231809 18.673053c-2.967225 3.73461-4.246201 6.44604-3.888088 8.236606s2.557952 4.195042 6.650676 7.162267a20.770573 20.770573 0 0 1 6.599518 6.036767c0.409272 1.07434-0.51159 3.478815-2.762589 7.111108-4.399678 5.115905-6.44604 8.492402-6.036768 9.976014s3.120702 2.199839 8.236607 2.199839 6.599517 2.14868 6.599517 4.399678a10.589923 10.589923 0 0 1-7.725016 2.199839c-5.88329-0.716227-8.850515-0.409272-8.850515 1.125499a8.492402 8.492402 0 0 0 1.125499 3.22302 9.055151 9.055151 0 0 0 8.799356 3.325338c1.483612-0.716227 2.557952-0.716227 3.325338 0s0.306954 1.841726-1.125499 3.274179c-0.716227 3.683451-2.916066 4.80895-6.650676 3.274179s-5.678654-1.07434-6.036768 1.125499 0.920863 4.041565 3.836929 5.474018c3.73461 2.967225 2.967225 8.441243-2.14868 16.524373-6.599517 10.231809-9.157469 15.347714-7.725016 15.347714 0 0.716227 2.557952-1.483612 7.725016-6.599517a40.927238 40.927238 0 0 1 8.799356-8.850515 104.006343 104.006343 0 0 1-4.399678 14.273374c-1.483612 3.683451-2.557952 5.474018-3.274179 5.474018a133.013523 133.013523 0 0 0-10.999195 22.049549l-8.799356 19.798551v86.970381q-1.176658 86.97038 0 129.841661a739.043596 739.043596 0 0 1-2.199839 92.444399c-1.534771 0-3.683451-1.841726-6.650677-5.525177s-4.604314-6.44604-5.115904-6.087927a43.382872 43.382872 0 0 0-1.688249 9.362106 14.733806 14.733806 0 0 1-1.07434 5.115904c-0.716227 1.841726-1.278976 3.120702-1.637089 3.888088s-1.330135 0.665068-2.762589 0-3.018384 0.358113-4.399678 3.274179-4.604314 1.07434-9.310946-5.525177-8.697038-9.924855-11.613104-9.924855a3.888088 3.888088 0 0 1-4.348519-4.348519 5.985609 5.985609 0 0 0-4.348519-6.036768q-4.501996-1.688249-8.850515-18.212621a71.008757 71.008757 0 0 0-3.836929-13.199034 3.785769 3.785769 0 0 0-5.525177-1.637089c-2.557952 1.07434-4.348519 1.07434-5.474018 0a15.961623 15.961623 0 0 1-1.688249-9.362106c0-7.315744-0.920863-11.561945-2.762588-12.687444s-1.790567-4.553155 0-10.231809a271.654541 271.654541 0 0 0 5.115905-46.043143l3.274179-71.622666 2.199839-37.397263-21.998391 19.84971q-28.649066 25.272569-29.774565 34.123085a10.231809 10.231809 0 0 1-6.036768 7.673857c-3.274179 1.534771-7.162267 3.325338-11.561944 5.525177a27.318931 27.318931 0 0 1-30.695429-1.125499 178.596234 178.596234 0 0 0-20.463619-11.510786 43.792144 43.792144 0 0 1-21.43564-20.92405c-3.73461-8.441243-7.008789-12.636285-9.976015-12.636285s-6.804153-2.71143-11.561944-8.236606a24.454025 24.454025 0 0 1-7.111108-15.961623 28.751385 28.751385 0 0 0-11.561944-20.463619c-7.725016-7.008789-10.231809-10.487605-7.725017-10.487605s3.427656-2.557952 2.762589-7.673857c-1.534771-6.650676-0.716227-10.231809 2.199839-11.561944a31.974404 31.974404 0 0 1 16.524372 1.637089c10.231809 3.683451 15.347714 5.525177 15.961623 5.525177a21.435641 21.435641 0 0 0 2.711429-6.650676q2.199839-6.548358 14.887283-10.231809a56.274952 56.274952 0 0 0 23.737798-14.836124 398.068546 398.068546 0 0 0 51.670638-100.118255 467.798327 467.798327 0 0 0 24.198229-69.371668 254.874373 254.874373 0 0 1 8.850515-36.834514 126.311687 126.311687 0 0 0 6.650676-28.035158c-0.767386-2.916066-1.688249-4.399678-2.813747-4.399678a19.235802 19.235802 0 0 0-7.111108 4.399678l-8.850515 7.725016-33.048744-10.999195a156.751321 156.751321 0 0 1-64.920831-29.774566 63.079105 63.079105 0 0 0-18.775371-12.073535 89.835287 89.835287 0 0 1-18.724211-12.073535 20.463619 20.463619 0 0 1-5.474018-12.124694 12.89208 12.89208 0 0 1 5.474018-12.073535 44.917643 44.917643 0 0 1 20.92405-3.274179 166.98313 166.98313 0 0 0 53.972795-18.724212 257.074212 257.074212 0 0 1 40.211011-17.70103c2.557952 0 4.399678-1.58593 5.474018-5.115905a6.190245 6.190245 0 0 1 6.087927-5.115904c2.967225 0 4.399678-0.869704 4.399678-2.762589s5.422859-5.115905 16.473213-10.231809 16.524372-8.390084 16.524372-9.924856 1.432453-2.14868 4.348519-2.14868a34.839311 34.839311 0 0 0 13.199035-4.399678l8.850515-4.399678V238.452319c-0.767386-38.880876-1.483612-59.395654-2.199839-61.390857s-1.483612-19.389279-2.199839-51.721796a208.115004 208.115004 0 0 0-14.324533-89.119061A512.102062 512.102062 0 0 0 449.070371 23.533162a32.127882 32.127882 0 0 1-2.14868-10.23181c0-2.916066 1.07434-4.399678 3.274179-4.399678s1.432453-1.534771 0.716227-3.73461z m-179.414778 583.213138c1.483612-3.632292 2.609111-4.246201 3.274179-1.63709s2.199839 3.274179 4.399678 2.199839 3.325338-0.56275 3.325338 1.63709-1.534771 3.888088-4.399678 5.115904a8.134289 8.134289 0 0 1-7.725016-0.51159c-0.56275-0.972022-0.204636-3.171861 1.227817-6.855312z m7.725016 21.99839c-2.199839 0-2.762589-1.07434-1.688249-3.22302s2.199839-3.325338 3.325338-3.325338 1.688249 1.125499 1.688249 3.325338a2.916066 2.916066 0 0 1-3.22302 3.171861z m3.325338 46.043142l1.07434-3.325338c1.432453 0.767386 1.841726 2.609111 1.125499 5.474018z m3.274179-82.519543c-2.199839 0-2.813748-0.920863-1.688249-2.762588s2.199839-2.762589 3.274179-2.762589 1.688249 0.920863 1.688249 2.762589-0.920863 2.916066-3.325338 2.916065z m266.436317-19.798551c2.199839-2.199839 3.683451-3.325338 4.399679-3.325338s0.358113 2.762589-1.125499 6.036768-2.916066 5.115905-4.399679 5.115904c-4.450837 0.051159-3.888088-2.557952 1.227818-7.673857z m24.19823-202.487509c3.683451-3.632292 5.474018-3.632292 5.474018 0 0 1.534771-1.790567 2.199839-5.474018 2.199839s-3.529974-0.56275 0.102318-2.046362z m297.285223 269.608179s0-8.850515 0.51159-26.398068-0.869704-26.244591-3.836928-25.886478-20.463619 6.241404-52.284546 17.598712-68.501964 23.584321-109.582679 36.885673a84.8217 84.8217 0 0 0-2.71143 19.184643 332.636125 332.636125 0 0 0-1.688248 23.737798 25.579524 25.579524 0 0 1-1.125499 14.273374 30.030361 30.030361 0 0 0-3.836929 13.761783 19.747392 19.747392 0 0 0 1.63709 11.561945c2.199839 2.199839 9.413265 1.841726 21.486799-1.07434a128.920799 128.920799 0 0 1 24.812138-4.399678 345.22125 345.22125 0 0 0 38.522763-7.162267c13.864102-3.274179 21.589118-6.394881 23.07273-9.310946 2.967225-2.967225 12.124694-3.632292 27.523567-2.199839a142.375628 142.375628 0 0 1 28.597908 4.399678 3.274179 3.274179 0 0 0 2.199839-1.07434 8.543561 8.543561 0 0 0 1.688248-4.399678l1.63709-9.362106c0.716227-4.246201 1.483612-9.66906 2.199839-17.035963 0.920863-21.947231 1.534771-32.946426 1.534771-32.946426z m-12.124694-144.166195a26.705023 26.705023 0 0 0 2.199839-9.873696v-20.92405q-15.347714 5.422859-74.845686 32.997585a392.645687 392.645687 0 0 1-47.373278 17.649871 44.917643 44.917643 0 0 0-23.686639 13.199034 71.622666 71.622666 0 0 0-3.836928 29.774566v15.347714l27.472408-9.924855 55.047135-18.724211q45.224598-17.496394 47.373278 1.07434c0 4.399678 0.920863 7.008789 2.762588 7.776175a39.955216 39.955216 0 0 0 11.561945 1.07434h13.250193l-2.199839-15.347714c-0.716227-10.231809-2.199839-15.347714-4.399678-14.836124s-3.171861-9.310947-3.171861-29.160657z m80.370863 82.570702c3.632292 0 5.474018-1.125499 5.474018-3.325338a2.916066 2.916066 0 0 0-3.274179-3.274179 6.44604 6.44604 0 0 0-5.474018 3.274179c-1.330135 2.302157-0.255795 3.427656 3.427656 3.427656z" fill="#FF4152" p-id="914"></path></svg>