<?xml version="1.0" standalone="no"?><!DOCTYPE svg PUBLIC "-//W3C//DTD SVG 1.1//EN" "http://www.w3.org/Graphics/SVG/1.1/DTD/svg11.dtd"><svg t="1597044738725" class="icon" viewBox="0 0 1024 1024" version="1.1" xmlns="http://www.w3.org/2000/svg" p-id="21459" xmlns:xlink="http://www.w3.org/1999/xlink" width="200" height="200"><defs><style type="text/css"></style></defs><path d="M456.9 370.4C437.8 307.9 435.1 244 446.6 184c0.2-1.1 0.3-2.5 0.3-3.8-0.3-8.6-7.7-15.4-16.3-14.9-1.1 0-4.1 0.9-6 1.6-208.7 73-318 308.5-229.1 519.5 73.4 173.7 266 270.1 449.3 225.6C770.8 881.4 866 794 912 684.8c9.4-22.3-9.5-45.9-33.5-42.8-184.6 24.1-365.1-87.7-421.6-271.6z" fill="#D0D9FB" p-id="21460"></path><path d="M554.9 928c-155.1 0-302.2-92.8-364.2-239.6-43.1-102.2-42.3-213.8 2.3-314.3 44-99.1 127.8-176.5 229.8-212.2 5.4-1.9 7.1-1.9 7.7-1.9 5.2-0.4 10.7 1.6 14.8 5.4 4.2 3.8 6.6 9 6.8 14.5 0 1.8-0.1 3.5-0.4 4.9-11.6 60.7-8 124.3 10.2 183.9 55.1 179.5 230 292.2 415.9 267.9 13.4-1.7 26.3 3.6 34.5 14.3 7.9 10.4 9.6 23.7 4.6 35.7C867.8 803.3 769.1 887.2 646 917.1c-30.3 7.4-60.8 10.9-91.1 10.9zM431.4 170.6h-0.6c-0.5 0.1-2.2 0.5-4.5 1.3-99.3 34.7-180.8 110-223.7 206.5-43.4 97.8-44.2 206.5-2.3 306 72 170.7 262.5 266.4 443.1 222.5 119.8-29.1 215.9-110.8 263.7-224.1 3.6-8.5 2.4-17.9-3.2-25.3-5.9-7.7-15.1-11.6-24.7-10.3-190.9 24.9-370.7-90.9-427.3-275.3-18.7-61.3-22.4-126.6-10.5-189 0.2-0.8 0.2-1.9 0.2-2.8-0.1-2.6-1.3-5.1-3.3-7-1.9-1.6-4.3-2.5-6.9-2.5z" fill="#3D52EF" p-id="21461"></path><path d="M407 438.9c-17.3-46.8-26.1-94.2-27.5-140.8-0.4-14-17-21.5-27.3-12.1-95.5 86.6-136.4 226.1-87.4 358.9 51.7 139.8 194.4 228.4 342.5 212 97.5-10.8 177.9-61.2 230-131.7-186.9 6.9-364.1-107-430.3-286.3z" fill="#FFFFFF" p-id="21462"></path><path d="M572.5 864c-136.6 0-264.6-87.1-312.7-217.4C212 517.4 246.9 374.2 348.6 282c6.2-5.6 14.9-7.1 22.7-3.8 8 3.4 13.2 10.9 13.4 19.6 1.4 47.3 10.6 94.1 27.2 139.1 64 173.5 238.7 289.6 425.1 282.9l10.9-0.4-6.5 8.8C785.5 804 702.5 851.5 607.8 862c-11.8 1.4-23.6 2-35.3 2zM362.8 287.1c-2.6 0-5.1 1-7.1 2.8-98.5 89.3-132.3 227.9-86 353.1 50.6 137 192.3 224.7 337 208.6 88.1-9.8 165.7-52.6 219.7-120.9h-5.1c-184.7 0-355.5-117.4-419.2-290-17-46-26.4-94-27.8-142.4-0.2-5.4-3.7-8.9-7-10.3-1.5-0.6-3-0.9-4.5-0.9z" fill="#FFFFFF" p-id="21463"></path><path d="M831.9 128.8l40-21.1c7.5-3.9 16.2 2.4 14.8 10.7l-7.6 44.6c-0.6 3.3 0.5 6.7 2.9 9l32.4 31.6c6 5.9 2.7 16.1-5.6 17.4l-44.8 6.5c-3.3 0.5-6.2 2.6-7.7 5.6l-20 40.6c-3.7 7.6-14.5 7.6-18.3 0l-20-40.6c-1.5-3-4.3-5.1-7.7-5.6l-44.8-6.5c-8.3-1.2-11.7-11.5-5.6-17.4l29.4-28.7c4.3-4.2 6.2-10.2 5.2-16l-6.9-40.5c-1.4-8.3 7.3-14.7 14.8-10.7l40 21.1c3 1.5 6.5 1.5 9.5 0z" fill="#D0D9FB" p-id="21464"></path><path d="M876.7 106.5c5.9 0 11.2 5.3 10 11.9l-7.6 44.6c-0.6 3.3 0.5 6.7 2.9 9l32.4 31.6c6 5.9 2.7 16.1-5.6 17.4l-44.8 6.5c-3.3 0.5-6.2 2.6-7.7 5.6l-20 40.6c-1.9 3.8-5.5 5.7-9.1 5.7-3.6 0-7.3-1.9-9.1-5.7l-20-40.6c-1.5-3-4.3-5.1-7.7-5.6l-44.8-6.5c-8.3-1.2-11.7-11.5-5.6-17.4l29.4-28.7c4.3-4.2 6.2-10.2 5.2-16l-6.9-40.5c-1.1-6.6 4.1-11.9 10-11.9 1.6 0 3.2 0.4 4.7 1.2l40 21.1c1.5 0.8 3.1 1.2 4.7 1.2s3.3-0.4 4.7-1.2l40-21.1c1.7-0.8 3.3-1.2 4.9-1.2m0-10.5c-3.3 0-6.7 0.8-9.6 2.4l-40 21.1-39.7-21.1c-3-1.6-6.3-2.4-9.6-2.4-6.1 0-11.9 2.7-15.9 7.4-3.9 4.6-5.6 10.8-4.5 16.8l6.9 40.5c0.4 2.5-0.4 5-2.2 6.7l-29.4 28.7a20.4 20.4 0 0 0-5.2 21.2c2.5 7.6 8.9 13 16.7 14.1l44.8 6.5 19.8 40.4c3.5 7.1 10.6 11.5 18.6 11.5 7.9 0 15.1-4.4 18.6-11.5l20-40.6 44.5-6.3c7.9-1.1 14.3-6.5 16.7-14.1s0.4-15.7-5.2-21.2l-32.4-31.6 7.8-44.3c1-6-0.6-12.2-4.5-16.8-4.3-4.7-10.1-7.4-16.2-7.4z" fill="#3D52EF" p-id="21465"></path><path d="M786.6 152.3c-1.2 0-2.3-0.9-2.6-2.1l-2.9-14.7c-0.3-1.4 0.6-2.8 2.1-3.1 1.4-0.2 2.8 0.6 3.1 2.1l2.9 14.7c0.3 1.4-0.6 2.8-2.1 3.1h-0.5zM771.5 196.3c-0.7 0-1.4-0.3-1.9-0.8-1-1-1-2.7 0.1-3.7l13.4-13.1c2.8-2.7 4-6.6 3.4-10.4-0.2-1.4 0.7-2.8 2.1-3 1.5-0.3 2.8 0.7 3 2.1 0.9 5.5-0.9 11.2-4.9 15.1l-13.4 13.1c-0.4 0.5-1.1 0.7-1.8 0.7z" fill="#FFFFFF" p-id="21466"></path><path d="M914.4 203.6l-15.2-14.8c5 6 1.8 15.3-6.1 16.5l-44.8 6.5c-3.3 0.5-6.2 2.6-7.7 5.6l-20 40.6c-1.6 3.3-4.6 4.8-7.7 5.3l5.1 10.4c3.7 7.6 14.5 7.6 18.3 0l20-40.6c1.5-3 4.3-5.1 7.7-5.6l44.8-6.5c8.3-1.2 11.6-11.5 5.6-17.4z" fill="#6484F9" p-id="21467"></path><path d="M553.3 577.6l2-0.1h-47c-6.6 0-11.9 5.3-11.9 11.9s5.3 11.9 11.9 11.9h41.5l3.5-23.7z" fill="#D0D9FB" p-id="21468"></path><path d="M555.4 577.5l-2 0.1-3.4 23.6h-41.5c-6.6 0-11.9-5.3-11.9-11.9 0-6.6 5.3-11.9 11.9-11.9h46.9m0-9.3h-47c-11.7 0-21.3 9.5-21.3 21.3 0 11.7 9.5 21.3 21.3 21.3H558l1.2-8.1 3.4-23.6-7.1-1-0.1-9.9z" fill="#3D52EF" p-id="21469"></path><path d="M906.7 577.5H656.3l-9.8 23.7h260.2c6.6 0 11.9-5.3 11.9-11.9s-5.3-11.8-11.9-11.8z" fill="#D0D9FB" p-id="21470"></path><path d="M906.7 577.5c6.6 0 11.9 5.3 11.9 11.9 0 6.6-5.3 11.9-11.9 11.9H646.5l9.8-23.7h250.4m0-9.5H650l-2.4 5.8-9.8 23.7-5.4 13h274.3c11.7 0 21.3-9.5 21.3-21.3 0-11.7-9.5-21.2-21.3-21.2z" fill="#3D52EF" p-id="21471"></path><path d="M547 628.5h-38.7c-6.5 0-11.8 5.3-11.8 11.9s5.3 11.9 11.8 11.9h35.3l3.4-23.8z" fill="#D0D9FB" p-id="21472"></path><path d="M547 628.5l-3.4 23.7h-35.3c-6.5 0-11.8-5.3-11.8-11.9 0-6.6 5.3-11.9 11.8-11.9H547m10.8-9.4h-49.5c-11.7 0-21.2 9.5-21.2 21.3 0 11.7 9.5 21.3 21.2 21.3h43.5l1.2-8.1 3.4-23.7 1.4-10.8z" fill="#3D52EF" p-id="21473"></path><path d="M902.9 628.5H645.1l1.1 23.7h256.7c6.5 0 11.8-5.3 11.8-11.9s-5.3-11.8-11.8-11.8z" fill="#D0D9FB" p-id="21474"></path><path d="M902.9 628.5c6.5 0 11.8 5.3 11.8 11.9 0 6.6-5.3 11.9-11.8 11.9H646.2l-1.1-23.7h257.8m0-9.6H635.2l0.4 9.8 1.1 23.7 0.4 9h265.7c11.7 0 21.2-9.5 21.2-21.3 0-11.6-9.5-21.2-21.1-21.2z" fill="#3D52EF" p-id="21475"></path><path d="M902.9 628.5H884c6.5 0 11.8 5.3 11.8 11.9 0 6.6-5.3 11.9-11.8 11.9h18.8c6.5 0 11.8-5.3 11.8-11.9 0-6.6-5.2-11.9-11.7-11.9zM906.8 577.5H888c6.5 0 11.8 5.3 11.8 11.9 0 6.6-5.3 11.9-11.8 11.9h18.8c6.5 0 11.8-5.3 11.8-11.9 0-6.6-5.3-11.9-11.8-11.9z" fill="#6484F9" p-id="21476"></path><path d="M544.2 737.8c-5.3 0-9.7-4.3-9.7-9.7V610.8c0-25.8 21-46.7 46.7-46.7 5.3 0 9.7 4.3 9.7 9.7 0 5.3-4.3 9.7-9.7 9.7-15.1 0-27.4 12.3-27.4 27.4v117.3c0 5.2-4.3 9.6-9.6 9.6z" fill="#FFFFFF" p-id="21477"></path><path d="M581.2 564.1c5.3 0 9.7 4.3 9.7 9.7 0 5.3-4.3 9.7-9.7 9.7-15.1 0-27.4 12.3-27.4 27.4v117.3c0 5.3-4.3 9.7-9.7 9.7-5.3 0-9.7-4.3-9.7-9.7V610.8c0.1-25.8 21.1-46.7 46.8-46.7m0-9.4c-30.9 0-56.1 25.2-56.1 56.1v117.3c0 10.5 8.6 19.1 19.1 19.1s19.1-8.6 19.1-19.1V610.8c0-9.9 8.1-18 18-18 10.5 0 19.1-8.6 19.1-19.1-0.1-10.5-8.7-19-19.2-19z" fill="#3D52EF" p-id="21478"></path><path d="M593.2 737.8c-5.3 0-9.7-4.3-9.7-9.7V610.8c0-25.8 21-46.7 46.7-46.7 5.3 0 9.7 4.3 9.7 9.7 0 5.3-4.3 9.7-9.7 9.7-15.1 0-27.4 12.3-27.4 27.4v117.3c0 5.2-4.3 9.6-9.6 9.6z" fill="#FFFFFF" p-id="21479"></path><path d="M630.2 564.1c5.3 0 9.7 4.3 9.7 9.7 0 5.3-4.3 9.7-9.7 9.7-15.1 0-27.4 12.3-27.4 27.4v117.3c0 5.3-4.3 9.7-9.7 9.7-5.3 0-9.7-4.3-9.7-9.7V610.8c0.1-25.8 21.1-46.7 46.8-46.7m0-9.4c-30.9 0-56.1 25.2-56.1 56.1v117.3c0 10.5 8.6 19.1 19.1 19.1 10.5 0 19.1-8.6 19.1-19.1V610.8c0-9.9 8.1-18 18-18 10.5 0 19.1-8.6 19.1-19.1-0.1-10.5-8.6-19-19.2-19z" fill="#3D52EF" p-id="21480"></path><path d="M642.2 737.8c-5.3 0-9.7-4.3-9.7-9.7V610.8c0-25.8 21-46.7 46.7-46.7 5.3 0 9.7 4.3 9.7 9.7 0 5.3-4.3 9.7-9.7 9.7-15.1 0-27.4 12.3-27.4 27.4v117.3c0.1 5.2-4.3 9.6-9.6 9.6z" fill="#FFFFFF" p-id="21481"></path><path d="M679.2 564.1c5.3 0 9.7 4.3 9.7 9.7 0 5.3-4.3 9.7-9.7 9.7-15.1 0-27.4 12.3-27.4 27.4v117.3c0 5.3-4.3 9.7-9.7 9.7-5.3 0-9.7-4.3-9.7-9.7V610.8c0.1-25.8 21.1-46.7 46.8-46.7m0-9.4c-30.9 0-56.1 25.2-56.1 56.1v117.3c0 10.5 8.6 19.1 19.1 19.1 10.5 0 19.1-8.6 19.1-19.1V610.8c0-9.9 8.1-18 18-18 10.5 0 19.1-8.6 19.1-19.1-0.1-10.5-8.6-19-19.2-19z" fill="#3D52EF" p-id="21482"></path><path d="M490.8 699c-5.9 0-10.5 5-10.2 10.9 5.7 116 101.5 208.4 219 208.4s213.3-92.4 219-208.4c0.3-5.9-4.3-10.9-10.2-10.9H490.8z" fill="#D0D9FB" p-id="21483"></path><path d="M908.3 699c5.9 0 10.5 5 10.2 10.9-5.7 116-101.5 208.4-219 208.4s-213.3-92.4-219-208.4c-0.3-5.9 4.3-10.9 10.2-10.9h417.6m0-9.4H490.8c-5.4 0-10.5 2.2-14.2 6.1-3.7 3.9-5.7 9.2-5.4 14.6 5.9 121.9 106.3 217.4 228.4 217.4 122.1 0 222.5-95.5 228.4-217.4 0.3-5.4-1.7-10.7-5.4-14.6-3.8-3.9-8.8-6.1-14.3-6.1z" fill="#3D52EF" p-id="21484"></path><path d="M552.2 828.4c-1.1 0-2.2-0.4-3.1-1.1-18.8-16.2-33.4-36.9-42.3-59.9-0.9-2.4 0.3-5.1 2.7-6.1 2.4-0.9 5.2 0.3 6.1 2.7 8.3 21.6 22 41 39.6 56.1 2 1.7 2.2 4.7 0.5 6.6-0.9 1.1-2.2 1.7-3.5 1.7zM504.5 747.6c-2.2 0-4.2-1.5-4.6-3.8-1.5-7.5-2.5-15.2-2.9-22.9-0.2-3.2 1-6.3 3.2-8.6s5.1-3.6 8.3-3.6c2.6 0 4.7 2.1 4.7 4.7s-2.1 4.7-4.7 4.7c-0.7 0-1.2 0.3-1.5 0.6-0.2 0.2-0.6 0.8-0.6 1.6 0.3 7.2 1.3 14.4 2.7 21.4 0.5 2.5-1.1 5-3.7 5.6-0.2 0.2-0.5 0.3-0.9 0.3z" fill="#FFFFFF" p-id="21485"></path><path d="M908.3 699h-18.6C880.1 811.3 786 899.4 671.3 899.4c-38.9 0-75.5-10.2-107.2-28 37.3 29.3 84.3 46.8 135.4 46.8 117.5 0 213.3-92.4 219-208.4 0.4-5.8-4.3-10.8-10.2-10.8z" fill="#6484F9" p-id="21486"></path><path d="M379.7 683.4c-2.3-5.2-6.1-10.7-11.7-16.7-8.4-8.9-19.7-15.2-31.9-15.3-8.2-0.1-15.8 2.2-22.6 5.8-6.4-8.6-15.1-15.3-25.3-19.1-2-34.4-30.4-61.7-65.2-61.7-30.7 0-56.3 21.1-63.4 49.6-30.2 5.8-53.1 32.3-53.1 64.2v0.2c0 10.8 8.7 19.5 19.5 19.5h236.2c13.6 0 23.1-14.1 17.5-26.5z" fill="#FFFFFF" p-id="21487"></path><path d="M282.8 613c4.5 12.1 12.6 29.8-6.8 57.4 15.7-11.8 24-20.7 22.5-32.2-1.4-11.5-15.7-25.2-15.7-25.2zM299.7 644c6.1 3.6 15.8 8.4 17.1 26.9 2.6-10.5 3-17.2-1.6-21.6s-15.5-5.3-15.5-5.3z" fill="#6484F9" p-id="21488"></path><path d="M223 576.4c34.9 0 63.3 27.3 65.2 61.7 10.2 3.8 18.9 10.5 25.3 19.1 6.7-3.6 14.1-5.8 22.2-5.8h0.4c12.2 0.1 23.5 6.4 31.9 15.3 5.6 6 9.4 11.5 11.7 16.7 5.6 12.5-3.9 26.5-17.5 26.5H126c-10.8 0-19.5-8.7-19.5-19.5v-0.2c0-31.9 22.9-58.4 53.1-64.2 7.1-28.5 32.8-49.6 63.4-49.6m0-10.5c-32.7 0-61.3 20.8-71.8 51.3-32.3 9.1-55.2 38.8-55.2 73 0 16.8 13.5 30.2 30 30.2h236.2c10.1 0 19.4-5.1 25-13.6 5.4-8.4 6.2-18.7 2.2-27.7-3-6.6-7.5-13.1-13.7-19.6-11.2-11.9-25.2-18.5-39.5-18.6-6.9 0-13.4 1.2-19.7 3.5-5.3-5.5-11.5-10.1-18.4-13.5-5.3-37-37.1-65-75.1-65z" fill="#3D52EF" p-id="21489"></path></svg>