<?xml version="1.0" standalone="no"?><!DOCTYPE svg PUBLIC "-//W3C//DTD SVG 1.1//EN" "http://www.w3.org/Graphics/SVG/1.1/DTD/svg11.dtd"><svg t="1596700514916" class="icon" viewBox="0 0 1024 1024" version="1.1" xmlns="http://www.w3.org/2000/svg" p-id="7585" xmlns:xlink="http://www.w3.org/1999/xlink" width="200" height="200"><defs><style type="text/css"></style></defs><path d="M945.493333 889.6h-853.333333a42.666667 42.666667 0 0 1-42.666667-42.666667v-682.666666a42.666667 42.666667 0 0 1 42.666667-42.666667h853.333333a42.666667 42.666667 0 0 1 42.666667 42.666667v682.666666a42.666667 42.666667 0 0 1-42.666667 42.666667z m-810.666666-85.333333h768v-597.333334h-768z" p-id="7586"></path><path d="M518.826667 548.266667a42.666667 42.666667 0 0 1-26.88-9.386667l-426.666667-341.333333a42.666667 42.666667 0 0 1-13.653333-47.786667 42.666667 42.666667 0 0 1 42.666666-28.16h853.333334a42.666667 42.666667 0 0 1 40.106666 28.16 42.666667 42.666667 0 0 1-13.653333 47.786667l-426.666667 341.333333a42.666667 42.666667 0 0 1-28.586666 9.386667zM213.333333 206.933333l305.066667 243.626667 305.066667-243.626667z" p-id="7587"></path></svg>