<?xml version="1.0" standalone="no"?><!DOCTYPE svg PUBLIC "-//W3C//DTD SVG 1.1//EN" "http://www.w3.org/Graphics/SVG/1.1/DTD/svg11.dtd"><svg t="1597125087244" class="icon" viewBox="0 0 1024 1024" version="1.1" xmlns="http://www.w3.org/2000/svg" p-id="1793" xmlns:xlink="http://www.w3.org/1999/xlink" width="200" height="200"><defs><style type="text/css"></style></defs><path d="M481.544818 2.303623c1.89152-3.845056 5.364473-2.868288 10.496383 2.868288a32.155832 32.155832 0 0 0 15.814344 9.116504 62.916281 62.916281 0 0 1 26.35724 24.403703 109.010442 109.010442 0 0 1 21.504406 36.869127 16.52754 16.52754 0 0 1-8.139735 18.60511q-7.752129 5.783088-26.822368 19.6594a84.343167 84.343167 0 0 1-29.690655 15.829848 86.606789 86.606789 0 0 0-30.713936 16.263967c-1.286853 1.953537-1.550426 3.224886-0.961264 3.798544q2.914801 0 49.861695-14.325935a595.192983 595.192983 0 0 1 99.118726-28.217751 100.560621 100.560621 0 0 1 51.164053 10.232811 109.971706 109.971706 0 0 1 22.977311 12.915047c0 0.976768 1.550426 2.40316 4.821825 4.29468a116.080384 116.080384 0 0 1 22.016047 13.411183c10.852981 7.628095 16.325984 12.806518 16.325984 15.364721a37.210221 37.210221 0 0 1 1.89152 5.674558q5.628046 16.341489 0 20.155536a44.326675 44.326675 0 0 0-12.496433 31.582175 144.623724 144.623724 0 0 0 2.883792 49.76867 75.970867 75.970867 0 0 1 3.845056 30.2178 82.017528 82.017528 0 0 0-1.891519 18.682632 498.01229 498.01229 0 0 1 1.891519 71.676187 270.843893 270.843893 0 0 0 2.868288 56.311468 485.283294 485.283294 0 0 1-1.938032 69.893197 160.267521 160.267521 0 0 1-8.139736 40.962252 63.877545 63.877545 0 0 0-4.310184 9.566127 54.357931 54.357931 0 0 0 8.15524-0.496136 55.396716 55.396716 0 0 1 6.201704-0.418615 171.539117 171.539117 0 0 1 28.729391-4.80632 258.238931 258.238931 0 0 0 57.443278-8.604864c1.271349-0.62017 1.550426-2.51169 0.914751-5.798592-0.62017-1.286853-0.775213-2.046562-0.40311-2.356648a3.721022 3.721022 0 0 1 2.356647-0.51164 244.967286 244.967286 0 0 0 30.202296 8.139735 124.933316 124.933316 0 0 1 41.675447 16.760104 114.60748 114.60748 0 0 1 24.884335 22.06256 39.194766 39.194766 0 0 1 11.473151 19.147759 19.03923 19.03923 0 0 0 3.845056 9.581632 14.356943 14.356943 0 0 1 3.845056 6.201704 7.457548 7.457548 0 0 1 0 5.131909 3.938082 3.938082 0 0 1-3.829551 1.89152 18.124478 18.124478 0 0 0-10.248315 5.116405c-4.201654 3.488458-7.31801 4.775312-9.628145 3.845056s-36.714084 0.775213-103.475422 5.116406-111.925243 7.628095-135.476211 9.581631q-24.977361 2.868288-70.962992 5.736576a414.78543 414.78543 0 0 0-54.06335 5.116405 57.877397 57.877397 0 0 0-22.078064 20.155537c-9.302555 11.783237-16.124429 20.481126-20.481126 25.597531s-6.713344 8.294778-6.713344 9.581631 0.775213 0.976768 2.40316 0.976769a50.760943 50.760943 0 0 0 6.201704-0.511641c2.51169-0.310085 5.426491-0.775213 8.604863-1.379879l54.574991-12.403407q24.930848-5.798593 37.380767-9.628144a30.667424 30.667424 0 0 1 16.325984-2.356648 194.99706 194.99706 0 0 1 26.837872 14.806567q32.558943 17.287248 32.558943 25.845599a31.008517 31.008517 0 0 0 4.759808 14.34144 39.349808 39.349808 0 0 1 5.131909 19.659399 28.992964 28.992964 0 0 1-4.310184 18.605111 139.0732 139.0732 0 0 0-6.201703 20.481125 58.233995 58.233995 0 0 1-6.201704 17.721368 22.047056 22.047056 0 0 0-3.783039 10.542896 68.792395 68.792395 0 0 1-9.116504 20.481125 74.854561 74.854561 0 0 0-8.186248 15.829848c0 1.286853-1.441896 3.379928-4.248167 6.201704a139.863917 139.863917 0 0 0-15.814344 26.357239 245.277371 245.277371 0 0 1-13.953833 25.597531 43.411924 43.411924 0 0 1-13.953832 11.984792 36.171435 36.171435 0 0 0-13.364671 12.496433 25.116899 25.116899 0 0 1-10.542896 10.248315 64.265152 64.265152 0 0 0-17.721368 16.682582 47.613578 47.613578 0 0 1-20.155536 16.279471 30.031749 30.031749 0 0 0-15.36472 11.519665 20.806715 20.806715 0 0 1-14.806567 9.581631c-4.511739 0.666683-7.007925 0-7.628095-1.891519a122.731711 122.731711 0 0 1-0.930256-21.969535 30.713936 30.713936 0 0 0-6.759857-21.566423c-4.449722-4.80632-6.356746-8.744402-5.736575-11.969288s-1.736477-5.674559-7.162968-7.628095-7.519565-4.821824-6.201703-8.604864a9.147513 9.147513 0 0 0-1.426392-9.581631 20.698185 20.698185 0 0 1-1.441896-15.814344c1.286853-7.93818 0.775213-12.744501-1.426392-14.387952a9.457598 9.457598 0 0 1-3.379928-8.139736 3.938082 3.938082 0 0 1 3.845056-4.310184 185.089839 185.089839 0 0 1 23.969584 1.4574q39.272287 1.829503 39.272287-5.798592c0-2.51169 1.736477-4.80632 5.116405-6.69784a33.721762 33.721762 0 0 0 10.496383-18.170991c3.472954-10.232811 6.093174-15.36472 7.752129-15.36472s2.40316-1.550426 2.40316-4.759808a91.816219 91.816219 0 0 1 8.604864-23.907566c12.186347-26.155684 14.698037-39.272287 7.752129-39.272288a352.489319 352.489319 0 0 0-69.93971 16.7446q-55.551759 16.698087-56.311468 22.527688-3.845056 8.589359-19.194272-4.821825c-6.356746-5.783088-10.496383-8.604864-12.403407-8.604863a22.155586 22.155586 0 0 1-10.23281-5.736576c-4.80632-3.829552-8.186249-5.116405-10.232811-3.829552s-1.89152 0.759709-1.891519 0.465128v-3.317912q2.868288-2.868288-3.845057-9.628144a42.652215 42.652215 0 0 1-12.496432-53.598222 210.857917 210.857917 0 0 1 20.155536-29.241032c10.232811-12.992569 15.054635-21.194322 14.387952-24.35719-0.62017-1.89152-3.488458-2.713245-8.604863-2.40316s-17.566325 2.40316-37.318751 6.201703l-47.923663 7.628095a770.561652 770.561652 0 0 0-117.754844 24.806814c-4.511739 3.224886-13.767782 2.666732-27.752623-1.426392a124.995333 124.995333 0 0 0-28.264264-6.201703 11.845254 11.845254 0 0 1-10.248314-3.829552 8.403308 8.403308 0 0 0-6.69784-3.829552 5.100901 5.100901 0 0 1-5.116405-4.248167 5.364473 5.364473 0 0 0-5.116406-4.356696c-2.604715 0-7.31801-3.333416-14.387952-10.248315s-9.876213-10.697938-8.604863-11.938279 0.930256-2.558203-0.961264-3.845056a5.100901 5.100901 0 0 1-1.953537-5.783089q0.976768-3.845056 26.822367-5.116405a285.712477 285.712477 0 0 0 54.109863-8.58936c18.837674-4.821824 32.4039-8.15524 40.962251-10.248314l38.342032-8.604864q93.800765-19.163264 148.484284-24.806814a161.089247 161.089247 0 0 0 62.249599-12.403407 6.449772 6.449772 0 0 1 8.651376-0.914751 329.124402 329.124402 0 0 0 71.676187-4.821824l55.551759-5.736576a80.901221 80.901221 0 0 0 22.016047-4.29468c0.666683-0.930256 0-3.178373-1.441896-6.713344a10.248315 10.248315 0 0 1 0.465128-10.23281 32.869028 32.869028 0 0 0 0.496136-9.535119 31.938773 31.938773 0 0 0-3.426441-11.519664c-1.845007-3.783039-3.488458-5.379978-4.759807-4.759808q-16.325984 5.674559-141.770941 28.729391-22.124577 3.798543-54.17188 12.403407a137.321218 137.321218 0 0 1-47.36551 6.713344 37.210221 37.210221 0 0 0-17.705863 1.426392 39.10174 39.10174 0 0 0-11.008024 13.829799l-3.845056 7.752129-17.25624-16.279472q-17.25624-18.233008-17.194222-21.612936c0-2.155092-1.953537-3.736526-5.783089-4.651278a5.13191 5.13191 0 0 1-3.845056-7.162967 8.341291 8.341291 0 0 0-4.29468-10.232811c-4.139637-2.914801-5.116405-5.581533-2.868287-8.186248a22.667226 22.667226 0 0 0 2.449672-15.767831 46.01664 46.01664 0 0 1 1.37988-18.682632 27.721614 27.721614 0 0 0 1.938032-11.473151 33.442686 33.442686 0 0 1 3.845056-14.791063 68.094704 68.094704 0 0 0 4.29468-26.35724q-0.883743-21.969534 4.759807-93.800764a426.987282 426.987282 0 0 0-1.89152-54.528478 1077.654502 1077.654502 0 0 1-3.845056-55.040118 393.436066 393.436066 0 0 0-3.845056-42.605702 68.838908 68.838908 0 0 0-6.201703-19.194272 156.313935 156.313935 0 0 0-14.806567-19.14776Q246.500258 134.678983 263.818515 129.965688a156.453474 156.453474 0 0 1 42.140575 3.845056c5.116405 1.286853 8.496334 1.286853 10.248314 0a31.442636 31.442636 0 0 0 6.201704-9.581632 99.087717 99.087717 0 0 1 24.806814-23.907566q19.194272-14.41896 52.218343-40.962252a403.71539 403.71539 0 0 1 43.566966-32.558943 52.419898 52.419898 0 0 0 16.791112-13.953832 17.054684 17.054684 0 0 1 12.946056-8.186249c4.604765 0.744204 7.53507-0.263572 8.806419-2.356647z m-60.373583 182.950251q8.651376-2.868288-2.9148-2.868288h-11.473152a93.366645 93.366645 0 0 0-27.752623 10.496383c-7.628095 3.829552-11.984792 7.876163-12.946056 11.969288a127.134921 127.134921 0 0 0 4.29468 34.962103q2.868288 24.806814 4.759807 56.311467 2.868288 40.311072 5.736576 58.373534c0.666683 3.224886 3.100852 4.651278 7.162968 4.29468a164.345141 164.345141 0 0 0 30.2178-9.101l28.775904-10.496383 7.752129-3.845056-5.783089-7.75213a37.75287 37.75287 0 0 0-11.008023-10.496383 113.615207 113.615207 0 0 1-17.721368-14.341439 97.676829 97.676829 0 0 0-18.170991-14.387952c-3.783039-1.938032-5.736576-3.690014-5.736576-5.116405a45.830588 45.830588 0 0 0-7.224984-13.364671c-4.759807-7.31801-6.201703-10.992519-4.29468-10.992519s2.914801-1.550426 2.914801-4.759808c0-5.783088 7.93818-4.80632 23.907567 2.868288a53.303641 53.303641 0 0 0 50.791951-2.868288 70.823453 70.823453 0 0 0 20.481125-13.411184 37.799382 37.799382 0 0 0-0.465127-20.155536 48.838415 48.838415 0 0 0-7.628096-21.039279 10.232811 10.232811 0 0 0-11.519664-3.845056c-3.224886 0.651179-4.759807 0.821726-4.759807 0.511641s1.286853-1.426392 3.845056-3.379929 3.845056-2.961313 3.845056-3.317911-1.627947-0.511641-4.80632-0.51164a67.397012 67.397012 0 0 0-21.039279 2.40316 35.287693 35.287693 0 0 1-22.992815-0.511641q-8.682385-1.845007-0.930256-3.783039a36.310974 36.310974 0 0 1 5.007876-1.550426zM386.658756 494.501816c1.333366-3.845056 0.666683-6.403259-1.953537-7.752129a4.093124 4.093124 0 0 0-2.868288 0.914751 31.008517 31.008517 0 0 0-3.333415 13.411184 84.219133 84.219133 0 0 1-3.379929 16.744599c-1.286853 3.488458 0 4.651278 3.845056 3.379929a143.166324 143.166324 0 0 0 22.016047-4.806321q14.387952-5.75208 15.349217-9.581631a11.116553 11.116553 0 0 0-16.279472-0.961264c-2.604715 2.558203-5.628046 2.093075-9.163017-1.379879a11.488656 11.488656 0 0 1-4.248167-9.628145z m7.752129-88.110701q-8.651376-13.411184-9.628145 7.752129 0 11.442143-0.914751 36.341982c-0.62017 16.589557-0.356598 24.806814 0.914751 24.806814a212.315317 212.315317 0 0 0 28.264264-22.527688 267.122871 267.122871 0 0 0 32.047302-30.155783l5.783089-6.651327-11.473152 1.89152a52.854018 52.854018 0 0 1-26.357239-0.976769 32.651969 32.651969 0 0 1-18.605111-10.031255z m100.560621 69.381557a16.031403 16.031403 0 0 1-4.759807-10.248315c0-3.100852-0.465128-5.116405-1.441896-5.116405a16.589557 16.589557 0 0 0-7.75213 1.891519 77.071669 77.071669 0 0 0-21.039279 19.612887c-9.876213 11.473151-14.232909 18.124478-12.946055 20.062511a126.933365 126.933365 0 0 0 26.822367-4.759808 86.203678 86.203678 0 0 0 21.039279-6.310233 7.752129 7.752129 0 0 0 3.845056-7.116454 10.480879 10.480879 0 0 0-3.829552-7.829651z m-9.581632-176.578001a9.038983 9.038983 0 0 0-4.759807-3.845056 25.535514 25.535514 0 0 0-2.40316 8.604863 35.163659 35.163659 0 0 1-10.232811 16.744599c-5.736576 6.201703-8.294778 9.783187-7.628095 11.008024s5.426491 0.356598 14.387952-2.868288q9.566128-1.938032 11.008024-5.736576a85.661029 85.661029 0 0 0-0.310086-23.752524z m130.235773-142.639179q-5.783088-7.628095-59.443328 12.403406l-29.690655 11.519665a6.868387 6.868387 0 0 0-4.821825 10.23281 48.590346 48.590346 0 0 0 8.139736 13.411184 40.946747 40.946747 0 0 1 7.224985 20.481126l2.806271 15.36472 7.752129-19.209777a46.74534 46.74534 0 0 0 5.783088-24.806813c-1.333366-4.465226 1.224836-7.93818 7.628095-10.496383a21.039279 21.039279 0 0 1 11.984792-4.29468 87.599061 87.599061 0 0 1 19.597383 8.139736c6.356746 3.224886 10.852981 5.628046 13.411184 7.224984s3.488458 3.317911 2.868288 5.116406a8.821923 8.821923 0 0 0 1.953536 7.643599 7.752129 7.752129 0 0 0 5.783089 3.829552c1.89152 0 2.821775-4.29468 2.821775-12.946056a269.293468 269.293468 0 0 0-1.426392-27.287495 94.482952 94.482952 0 0 0-2.248117-15.829848z m-49.861696 280.51855a160.143487 160.143487 0 0 0-17.25624-3.845056q-2.868288 0-6.69784 29.659647l-0.914751 18.170991 9.566128-0.914751a126.220169 126.220169 0 0 0 43.117343-11.473152 29.706159 29.706159 0 0 1 18.217504-2.868287 23.597482 23.597482 0 0 0 12.915047-0.976769c2.201605-1.224836 2.40316-3.472954 0.449624-6.651327-1.224836-4.201654-20.992766-11.364622-59.334798-21.101296z m57.040167-92.870509q-1.4574-4.759807-4.294679-4.759807c-1.89152 0-3.379928 1.426392-4.356697 4.248167a4.852833 4.852833 0 0 0 1.550426 6.201703c1.224836 0 0.263572 0.930256-2.914801 2.868288a338.178889 338.178889 0 0 1-44.078607 18.186495c-15.36472 5.783088-23.597482 10.232811-24.884335 13.349167 0 1.938032 1.131811 3.100852 3.379928 3.426441a164.174594 164.174594 0 0 0 16.791112 0.418615 112.71596 112.71596 0 0 1 39.272287 6.759857q18.170991 6.651327 21.039279 14.341439l0.930256-38.295519a161.693913 161.693913 0 0 0-2.310135-26.574299z m1.89152-83.242364c1.643451 0 2.40316-1.131811 2.40316-3.379928a36.791606 36.791606 0 0 0-3.845056-11.969288l-2.868288-7.6436-4.759807 6.713344a228.005627 228.005627 0 0 0-32.558944 52.636958c0 1.317862 2.51169 3.224886 7.75213 5.783089a34.869078 34.869078 0 0 1 21.039279 19.147759c1.953537 4.511739 3.845056 6.69784 5.783088 6.69784s2.51169 0 3.736526-2.40316a33.272139 33.272139 0 0 0 2.914801-6.201704 9.457598 9.457598 0 0 0 0-5.736575 78.730625 78.730625 0 0 1-1.953536-27.287495c0.10853-17.054684 0.868238-26.35724 2.511689-26.35724z" fill="#FF4152" p-id="1794"></path></svg>