<?xml version="1.0" standalone="no"?><!DOCTYPE svg PUBLIC "-//W3C//DTD SVG 1.1//EN" "http://www.w3.org/Graphics/SVG/1.1/DTD/svg11.dtd"><svg t="1597125116722" class="icon" viewBox="0 0 1024 1024" version="1.1" xmlns="http://www.w3.org/2000/svg" p-id="2156" xmlns:xlink="http://www.w3.org/1999/xlink" width="200" height="200"><defs><style type="text/css"></style></defs><path d="M103.41888 918.770688c44.401664-107.428864 72.730624-227.116032 85.102592-358.984704l74.003456 0c-12.371968 148.98176-35.787776 268.668928-70.30272 358.984704L103.41888 918.770688zM170.020864 288.708608c-9.885696-58.604544-28.386304-118.421504-55.501824-179.488768l81.403904 0c22.20032 53.741568 40.701952 113.550336 55.501824 179.488768L170.020864 288.708608zM181.122048 508.498944c-14.800896-63.475712-33.301504-123.28448-55.501824-179.495936l77.703168 0c27.11552 65.938432 46.830592 125.80864 59.20256 179.495936L181.122048 508.498944zM299.526144 270.398464l0-62.278656 88.803328 0L388.329472 94.56128l88.803328 0 0 113.558528 81.40288 0 0 62.278656-81.40288 0 0 212.457472c9.827328-2.40128 23.414784-6.068224 40.701952-10.984448 17.2288-4.871168 30.815232-8.52992 40.701952-10.99264l0 58.612736c-29.601792 14.651392-56.774656 25.63584-81.40288 32.968704l0 278.395904c0 63.475712-33.301504 95.240192-99.904512 95.240192l-66.601984 0L310.627328 867.49184l37.001216 0c29.600768 0 43.128832-12.250112 40.700928-36.635648L388.329472 581.763072c-27.172864 4.924416-57.988096 10.99264-92.504064 18.317312l0-80.5888c32.029696-2.408448 62.902272-7.325696 92.504064-14.65856l0-234.43456L299.526144 270.398464zM536.336384 933.42208l0-62.271488c46.830592-41.498624 67.817472-115.959808 62.902272-223.450112L599.238656 138.522624l185.007104 0c56.716288 0 113.432576-9.734144 170.207232-29.302784l0 69.597184c-51.802112 14.651392-102.38976 21.977088-151.7056 21.977088L684.342272 200.794112l0 153.852928 273.810432 0 0 62.271488-81.40288 0 0 516.504576-85.102592 0L791.647232 416.917504l-107.30496 0 0 208.79872C694.1696 779.569152 644.854784 882.142208 536.336384 933.42208z" p-id="2157"></path></svg>